<svg xmlns="http://www.w3.org/2000/svg" viewBox="0 0 354.94 789.75"><defs><style>.cls-1{fill:#896242;}.cls-2{fill:#a07558;}.cls-3{fill:#c96;}.cls-4{fill:#754e32;}.cls-5{fill:#fc0;}.cls-6{fill:#ffdd50;}.cls-7{fill:none;stroke:#fff;stroke-linecap:round;stroke-miterlimit:10;stroke-width:2px;}</style></defs><g id="Layer_4" data-name="Layer 4"><polygon class="cls-1" points="259.56 131.28 259.56 633.38 245.75 625.4 245.75 609.48 245.75 139.25 259.56 131.28"/><polygon class="cls-2" points="129.78 206.21 245.75 139.25 245.75 609.48 129.78 542.53 129.78 206.21"/><polygon class="cls-3" points="66.3 210.96 259.56 99.37 273.38 107.35 80.11 218.93 66.3 210.96"/><polygon class="cls-1" points="129.78 206.21 129.78 542.53 245.75 609.48 245.75 625.4 115.99 550.49 115.99 214.17 129.78 206.21"/><polygon class="cls-4" points="80.11 218.93 273.38 107.35 273.38 625.4 259.56 633.38 259.56 131.28 245.75 139.25 129.78 206.21 115.99 214.17 93.93 226.91 93.93 729.01 80.11 736.98 80.11 218.93"/><polygon class="cls-1" points="80.11 218.93 80.11 736.98 66.3 729.01 66.3 210.96 80.11 218.93"/></g><g id="Layer_8" data-name="Layer 8"><polygon class="cls-1" points="93.93 226.91 93.93 729.01 259.57 633.38 259.57 131.28 93.93 226.91"/><path class="cls-2" d="M105.17,235.75V703.13l144.27-79.5,2.06-473.07Z"/></g><g id="Layer_3" data-name="Layer 3"><circle class="cls-5" cx="112.61" cy="460.13" r="10.31"/><circle class="cls-6" cx="111.07" cy="459.69" r="10.31"/><path class="cls-7" d="M104.86,460.56a5.86,5.86,0,0,1,0-4.27,6,6,0,0,1,4.88-3.56"/></g></svg>