<svg xmlns="http://www.w3.org/2000/svg" viewBox="0 0 354.94 789.75"><defs><style>.cls-1{fill:#896242;}.cls-2{fill:#a07558;}.cls-3{fill:#c96;}.cls-4{fill:#754e32;}.cls-5{fill:#fc0;}.cls-6{fill:#ffdd50;}.cls-7{fill:none;stroke:#fff;stroke-linecap:round;stroke-miterlimit:10;stroke-width:2px;}</style></defs><g id="Layer_9" data-name="Layer 9"><path class="cls-1" d="M115,214.18V48.37l143.57,82.92"/><path class="cls-2" d="M128.79,238.07V72.26l116,67"/><polyline class="cls-3" points="229.54 114.53 244.76 105.75 131.34 42.75 114.99 48.37"/></g><g id="Layer_4" data-name="Layer 4"><polygon class="cls-4" points="272.39 105.74 272.39 623.79 258.57 631.77 258.57 129.67 244.76 137.65 128.79 204.6 115 212.56 92.94 225.3 92.94 727.4 79.12 735.38 79.12 217.32 272.39 105.74"/><polygon class="cls-3" points="272.39 105.74 79.12 217.32 65.31 209.35 258.57 97.77 272.39 105.74"/><polygon class="cls-1" points="258.57 129.67 258.57 631.77 244.76 623.79 244.76 607.87 244.76 137.65 258.57 129.67"/><polygon class="cls-1" points="244.76 607.87 244.76 623.79 115 548.88 115 212.56 128.79 204.6 128.79 540.92 244.76 607.87"/><polygon class="cls-2" points="244.76 137.65 244.76 607.87 128.79 540.92 128.79 204.6 244.76 137.65"/><polygon class="cls-1" points="79.12 217.32 79.12 735.38 65.31 727.4 65.31 209.35 79.12 217.32"/></g><g id="Layer_3" data-name="Layer 3"><circle class="cls-5" cx="135.24" cy="393.09" r="10.31"/><circle class="cls-6" cx="133.7" cy="392.65" r="10.31"/><path class="cls-7" d="M127.49,393.52a5.86,5.86,0,0,1,0-4.27,6,6,0,0,1,4.88-3.56"/></g></svg>