<svg xmlns="http://www.w3.org/2000/svg" viewBox="0 0 735.98 792"><defs><style>.cls-1{fill:none;}.cls-2{fill:#f9dd75;}.cls-3{fill:#cd9f59;}.cls-4{fill:#a79594;}.cls-5{fill:#dac1ac;}.cls-6{fill:#fefbf6;}.cls-7{fill:#fbf4e8;}.cls-8{fill:#ffedb3;}.cls-9{fill:#eaddd7;}.cls-10{fill:#d8beac;}.cls-11{fill:#f4fcf8;}.cls-12{fill:#faf8e7;}.cls-13{fill:#684158;}.cls-14{fill:#926573;}.cls-15{fill:#b59e8d;}.cls-16{fill:#9f8285;}.cls-17{fill:#aa848b;}.cls-18{fill:#d5b3ab;}.cls-19{fill:#fafdf6;}.cls-20{fill:#bcb6b1;}.cls-21{fill:#8c8883;}.cls-22{fill:#d6cfc7;}.cls-23{fill:#e2dedc;}.cls-24{fill:#f4f3f2;}.cls-25{fill:#e8e8e8;}.cls-26{fill:#fff;}.cls-27{fill:#84666f;}.cls-28{fill:#8b676e;}</style></defs><g id="Background"><path class="cls-1" d="M138.34,269V494.91l90.08-52V217ZM252,203.41V429.29l90.08-52V151.41ZM138.34,269V494.91l90.08-52V217ZM252,203.41V429.29l90.08-52V151.41Zm110.19-84.13V392.91l237,136.81V256.09ZM138.34,269V494.91l90.08-52V217ZM252,203.41V429.29l90.08-52V151.41Zm110.19-84.13V392.91l237,136.81V256.09ZM138.34,269V494.91l90.08-52V217ZM252,203.41V429.29l90.08-52V151.41Zm110.19-84.13V392.91l237,136.81V256.09ZM138.34,269V494.91l90.08-52V217ZM252,203.41V429.29l90.08-52V151.41Zm110.19-84.13V392.91l237,136.81V256.09ZM138.34,269V494.91l90.08-52V217ZM252,203.41V429.29l90.08-52V151.41Zm110.19-84.13V392.91l237,136.81V256.09Zm0-21.06L380,108.47l237.43,137.1V540.26L362.19,687.59H656.88V98.22Zm237,157.87-237-136.81V392.91l237,136.81ZM252,429.29l90.08-52V151.41l-90.08,52ZM138.34,494.91l90.08-52V217l-90.08,52ZM362.19,119.28V392.91l237,136.81V256.09ZM252,203.41V429.29l90.08-52V151.41ZM138.34,269V494.91l90.08-52V217ZM362.19,119.28V392.91l237,136.81V256.09ZM252,203.41V429.29l90.08-52V151.41ZM138.34,269V494.91l90.08-52V217ZM362.19,119.28V392.91l237,136.81V256.09ZM252,203.41V429.29l90.08-52V151.41ZM138.34,269V494.91l90.08-52V217ZM362.19,119.28V392.91l237,136.81V256.09ZM252,203.41V429.29l90.08-52V151.41ZM138.34,269V494.91l90.08-52V217ZM107,540.26V245.57L362.19,98.22H67.5V687.59H362.19l-237-136.81ZM252,203.41V429.29l90.08-52V151.41ZM138.34,269V494.91l90.08-52V217Zm0,0V494.91l90.08-52V217ZM252,203.41V429.29l90.08-52V151.41Zm0,0V429.29l90.08-52V151.41ZM138.34,269V494.91l90.08-52V217Z"/><polygon class="cls-1" points="342.08 151.41 342.08 377.29 252 429.3 252 203.41 342.08 151.41"/><polygon class="cls-2" points="599.15 256.1 599.15 529.72 362.19 392.9 362.19 119.28 599.15 256.1"/><polygon class="cls-3" points="617.39 245.56 617.39 518.97 599.15 529.72 599.15 256.1 617.39 245.56"/><polygon class="cls-4" points="617.39 518.97 617.39 540.25 362.19 687.6 362.19 666.53 599.15 529.72 617.39 518.97"/><path class="cls-5" d="M125.22,256.09V529.72l237-136.81V119.28Zm109,190.18-95.9,55.37V269l90.08-52,5.82-3.37ZM347.9,380.65,252,436V203.41l90.08-52L347.9,148Z"/><polygon class="cls-6" points="347.9 380.64 252 436.01 252 429.3 342.08 377.29 347.9 380.64"/><polygon class="cls-6" points="234.24 446.26 138.34 501.63 138.34 494.92 228.42 442.92 234.24 446.26"/><polygon class="cls-7" points="347.9 148.04 347.9 380.64 342.08 377.29 342.08 151.41 347.9 148.04"/><polygon class="cls-7" points="234.24 213.66 234.24 446.26 228.42 442.92 228.42 217.03 234.24 213.66"/><polygon class="cls-8" points="617.39 245.56 599.15 256.1 362.19 119.28 379.96 108.47 617.39 245.56"/><polygon class="cls-6" points="379.96 108.47 362.19 119.28 125.22 256.1 106.98 245.56 362.19 98.22 379.96 108.47"/><polygon class="cls-9" points="599.15 529.72 362.19 666.53 125.22 529.72 362.19 392.9 599.15 529.72"/><polygon class="cls-7" points="362.19 666.53 362.19 687.6 125.22 550.78 106.98 540.25 106.98 245.56 125.22 256.1 125.22 529.72 362.19 666.53"/><line class="cls-1" x1="617.81" y1="518.72" x2="617.39" y2="518.97"/></g><g id="Objects"><polygon class="cls-10" points="595.94 525.88 599.15 529.72 536.9 565.77 539.81 558.35 548.42 553.52 552.91 551 580.94 534.63 585.55 531.93 595.94 525.88"/><polygon class="cls-11" points="595.94 525.88 585.55 531.93 585.55 526.93 591.43 523.45 595.94 525.88"/><path class="cls-10" d="M585.55,531.94l-4.61,2.7V507.11l-6.84-5.31H565a27.58,27.58,0,0,0,4.58-5.17h9.12l6.84,7.78v27.53Z"/><polygon class="cls-12" points="580.94 507.12 580.94 534.63 576.36 532.4 576.36 505.31 580.94 507.12"/><polygon class="cls-12" points="580.94 507.12 576.36 505.31 572.49 501.8 574.1 501.8 580.94 507.12"/><polygon class="cls-11" points="580.94 534.63 552.91 551 552.91 545.98 563.84 539.85 576.36 532.4 580.94 534.63"/><path class="cls-11" d="M578.71,496.63h-9.12c.44-.64.87-1.27,1.28-1.94.18-.29.36-.58.52-.88H575Z"/><path class="cls-13" d="M565,501.8a25.94,25.94,0,0,1-3.06,2.29c-2.5,1.6-5.91,3-9,2.36a6.81,6.81,0,0,1-3.16-1.44l-.23-.19h0a8.46,8.46,0,0,1-1.08-1.17h0c-2.21-2.94-2.3-7.23-1.82-10.47A29.57,29.57,0,0,1,551,481.55a28.33,28.33,0,0,1,8.51-9.06c3.15-2.09,7.91-4,11.75-1.68,4,2.39,4.49,7.8,4,11.7a28.55,28.55,0,0,1-3.93,11.3c-.16.3-.34.59-.52.88-.41.67-.84,1.3-1.28,1.94A27.58,27.58,0,0,1,565,501.8Zm.75-10.61c.56-.93,1.13-2.78-.06-3.55h0c.29-1.35.17-3-1-3.39l-2.29-1.36a1,1,0,0,0-.78.06A5.1,5.1,0,0,0,560,484a10.33,10.33,0,0,0-1.08,1.26c-.3.41-.59.85-.85,1.29a10.47,10.47,0,0,0-.67,1.34,9.06,9.06,0,0,0-.41,1.41,4,4,0,0,0-.12,1.24c0,.13,0,.25.37.72l2,1.7c.71.86,2,.59,3.21-.24l.09.07C563.79,493.57,565.18,492.16,565.76,491.19Z"/><path class="cls-14" d="M566,467.66l5.26,3.15c-3.84-2.29-8.6-.41-11.75,1.68a28.33,28.33,0,0,0-8.51,9.06,29.57,29.57,0,0,0-4.43,11.61c-.48,3.24-.39,7.53,1.82,10.47h0v.26l-4.5-3.75a6.39,6.39,0,0,1-1-2.58,14.14,14.14,0,0,1,0-4.59,28.82,28.82,0,0,1,.93-4.37,34.24,34.24,0,0,1,1.53-4.18,36.18,36.18,0,0,1,1.94-3.83,35.6,35.6,0,0,1,2.52-3.79,34.92,34.92,0,0,1,3.14-3.63,29.57,29.57,0,0,1,3.65-3.15,24,24,0,0,1,4-2.35c1.1-.52,2.25-.91,5.4,0Z"/><path class="cls-13" d="M562.44,465.53l3.58,2.13c-3.15-.89-4.3-.5-5.4,0a24,24,0,0,0-4,2.35,29.57,29.57,0,0,0-3.65,3.15,34.92,34.92,0,0,0-3.14,3.63,35.6,35.6,0,0,0-2.52,3.79,36.18,36.18,0,0,0-1.94,3.83,34.24,34.24,0,0,0-1.53,4.18,28.82,28.82,0,0,0-.93,4.37,14.14,14.14,0,0,0,0,4.59,6.39,6.39,0,0,0,1,2.58l-3.43-2.87a11.21,11.21,0,0,1-.75-3.84,21,21,0,0,1,.61-5.71A28.59,28.59,0,0,1,542,483a41.2,41.2,0,0,1,4.89-8.36,38.86,38.86,0,0,1,3.47-4,24.21,24.21,0,0,1,4.22-3.48,11.06,11.06,0,0,1,5.63-1.88A10.33,10.33,0,0,1,562.44,465.53Z"/><path class="cls-15" d="M565.7,487.64c1.19.77.62,2.62.06,3.55s-2,2.38-3.24,1.62l-.09-.07a.38.38,0,0,1-.13-.09h0c-1-.83-.43-2.54.1-3.45s2-2.37,3.24-1.6A.15.15,0,0,1,565.7,487.64Z"/><path class="cls-15" d="M564.66,484.24c1.21.37,1.33,2,1,3.39h0a.15.15,0,0,0-.07-.05l-1.8-1.08a.68.68,0,0,0-.53,0,2.82,2.82,0,0,0-1,.58,4.49,4.49,0,0,0-.66.73,6.19,6.19,0,0,0-.51.75,5.26,5.26,0,0,0-.39.79,4.63,4.63,0,0,0-.2.86,2.16,2.16,0,0,0,0,.76c0,.07,0,.15.29.46l1.46,1.2h0a.38.38,0,0,0,.13.09c-1.16.83-2.5,1.1-3.21.24a2.33,2.33,0,0,1-.48-1.2,7.37,7.37,0,0,1,1.28-4.56c.74-1.17,2.12-2.73,3.64-3A2.07,2.07,0,0,1,564.66,484.24Z"/><path class="cls-16" d="M563.83,486.51l1.8,1.08c-1.27-.77-2.66.64-3.24,1.6s-1.07,2.62-.1,3.45l-1.46-1.2c-.26-.31-.28-.39-.29-.46a2.16,2.16,0,0,1,0-.76,4.63,4.63,0,0,1,.2-.86,5.26,5.26,0,0,1,.39-.79,6.19,6.19,0,0,1,.51-.75,4.49,4.49,0,0,1,.66-.73,2.82,2.82,0,0,1,1-.58A.68.68,0,0,1,563.83,486.51Z"/><path class="cls-16" d="M562.37,482.88l2.29,1.36a2.07,2.07,0,0,0-1,0c-1.52.27-2.9,1.83-3.64,3a7.37,7.37,0,0,0-1.28,4.56,2.33,2.33,0,0,0,.48,1.2l-2-1.7c-.34-.47-.36-.59-.37-.72a4,4,0,0,1,.12-1.24,9.06,9.06,0,0,1,.41-1.41,10.47,10.47,0,0,1,.67-1.34c.26-.44.55-.88.85-1.29A10.33,10.33,0,0,1,560,484a5.1,5.1,0,0,1,1.56-1.08A1,1,0,0,1,562.37,482.88Z"/><path class="cls-14" d="M560.06,464.11l2.38,1.42a10.33,10.33,0,0,0-2.23-.3,11.06,11.06,0,0,0-5.63,1.88,24.21,24.21,0,0,0-4.22,3.48,38.86,38.86,0,0,0-3.47,4A41.2,41.2,0,0,0,542,483a28.59,28.59,0,0,0-1.65,4.78,21,21,0,0,0-.61,5.71,11.21,11.21,0,0,0,.75,3.84l-.44-.37c-2.2-2.39-2.43-2.94-2.6-3.51a14.64,14.64,0,0,1-.37-5.33,26.34,26.34,0,0,1,1-5.85,23.37,23.37,0,0,1,1.68-4c.25-.46.52-.93.79-1.4.19-.32.38-.65.58-.95.31-.49.63-1,1-1.46q.88-1.29,1.86-2.49a.13.13,0,0,1,0-.06,27,27,0,0,1,4.45-4.5l.21-.16a18.44,18.44,0,0,1,4.28-2.52,17.42,17.42,0,0,1,3.06-1A6.47,6.47,0,0,1,560.06,464.11Z"/><path class="cls-10" d="M552.91,546v5l-4.49,2.52V503.9l1.08.91h0l.23.19a6.81,6.81,0,0,0,3.16,1.44Z"/><path class="cls-10" d="M552.91,464.69h0a18.44,18.44,0,0,0-4.28,2.52l-.21.16V450.53l4.49-2.51Z"/><polygon class="cls-11" points="552.91 448.01 548.42 450.52 543.92 448.01 548.42 445.5 552.91 448.01"/><polygon class="cls-12" points="548.42 503.89 548.42 553.52 543.92 551 543.92 542 543.92 536.54 543.92 531.43 543.92 530 543.92 524.55 543.92 519.45 543.92 500.14 548.42 503.89"/><path class="cls-12" d="M548.42,450.53v16.85a27,27,0,0,0-4.45,4.5.13.13,0,0,0,0,.06h0V448Z"/><polygon class="cls-11" points="548.42 553.52 539.81 558.35 535.31 555.84 543.92 551 548.42 553.52"/><polygon class="cls-12" points="543.92 536.54 543.92 542 492.82 512.5 497.51 509.75 543.92 536.54"/><polygon class="cls-12" points="543.92 524.55 543.92 530 503.14 506.46 507.84 503.73 543.92 524.55"/><path class="cls-11" d="M458.37,426.11l83.7,48.32c-.32.47-.64,1-1,1.46L442.63,419l1-.89,1.07.05,4.72,2.72,4.5,2.6Z"/><path class="cls-10" d="M541.12,475.89c-.2.3-.39.63-.58.95-.27.47-.54.94-.79,1.4l-49.18-28.38-11.4-6.58-5.34-3.09-15.46-8.92-4.49-2.59-4.5-2.61L442.32,422l-.44-1.38.75-1.58Z"/><polygon class="cls-12" points="539.81 558.35 536.9 565.77 532.4 563.25 535.31 555.84 539.81 558.35"/><polygon class="cls-13" points="523.97 490.99 523.97 494.3 512.24 501.15 507.84 503.73 503.14 506.46 501.92 507.18 497.51 509.75 492.82 512.5 435.69 545.87 435.69 542.55 523.97 490.99"/><polygon class="cls-14" points="523.97 490.99 435.69 542.55 417.9 532.27 472.17 500.57 476.86 497.82 481.27 495.25 482.49 494.55 487.19 491.8 491.59 489.23 506.18 480.7 523.97 490.99"/><polygon class="cls-10" points="501.4 472.89 504.61 476.75 487.39 486.81 482.46 483.95 485.95 481.92 490.57 479.23 490.57 479.21 501.4 472.89"/><polygon class="cls-11" points="501.4 472.89 490.57 479.21 490.57 474.23 496.89 470.46 501.4 472.89"/><polygon class="cls-13" points="488.25 231.68 493.42 300.25 491.34 301.44 486.17 232.88 488.25 231.68"/><polygon class="cls-14" points="486.17 232.88 491.34 301.44 379.09 236.63 373.92 168.06 486.17 232.88"/><polygon class="cls-10" points="490.57 474.23 490.57 479.21 490.57 479.23 485.95 481.92 485.95 454.39 479.11 449.07 477.51 448.92 458.37 447 458.37 440.39 479.17 443.27 490.57 449.86 490.57 474.23"/><polygon class="cls-17" points="488.25 231.68 486.17 232.88 373.92 168.06 376 166.87 488.25 231.68"/><polygon class="cls-12" points="469.25 486.89 458.37 480.62 453.88 478.01 453.88 472.56 487.19 491.8 482.49 494.55 482.49 494.54 478.29 492.12 473.37 489.27 469.25 486.89"/><polygon class="cls-12" points="485.95 454.39 485.95 481.92 481.38 479.69 481.37 479.69 481.37 452.58 485.95 454.39"/><polygon class="cls-12" points="485.95 454.39 481.37 452.58 477.51 448.92 479.11 449.07 485.95 454.39"/><polygon class="cls-11" points="485.95 481.92 482.46 483.95 478.27 481.54 481.37 479.69 481.38 479.69 485.95 481.92"/><polygon class="cls-11" points="473.83 440.19 479.17 443.27 458.37 440.39 458.37 437.92 473.83 440.19"/><polygon class="cls-10" points="473.37 489.27 478.29 492.12 477.07 492.83 472.14 489.99 473.37 489.27"/><polygon class="cls-12" points="476.86 497.82 472.17 500.57 467.97 498.14 463.04 495.31 458.71 492.81 458.37 492.61 453.88 490.01 453.88 484.56 476.86 497.82"/><polygon class="cls-11" points="469.25 486.89 473.37 489.27 472.14 489.99 468 487.6 469.25 486.89"/><polygon class="cls-10" points="467.97 498.14 455.46 505.45 442.36 512.79 445.27 505.38 453.88 500.55 458.37 498.02 463.04 495.31 467.97 498.14"/><polygon class="cls-11" points="463.04 495.31 458.37 498.02 458.37 493 458.71 492.81 463.04 495.31"/><polygon class="cls-10" points="453.88 478.01 458.37 480.62 458.37 482.04 453.88 484.56 453.88 478.01"/><polygon class="cls-10" points="458.37 493 458.37 498.02 453.88 500.55 453.88 490.01 458.37 492.61 458.37 493"/><polygon class="cls-10" points="458.37 447 458.37 470.05 453.88 472.56 453.88 428.68 458.37 431.26 458.37 437.92 458.37 440.39 458.37 447"/><polygon class="cls-10" points="458.37 395.04 458.37 426.11 453.88 423.5 453.88 397.56 458.37 395.04"/><polygon class="cls-11" points="458.37 395.04 453.88 397.56 449.38 395.04 453.88 392.51 458.37 395.04"/><polygon class="cls-12" points="449.38 426.07 453.88 428.68 453.88 472.56 453.88 478.01 453.88 484.56 453.88 490.01 453.88 500.55 449.38 498.02 449.38 431.38 449.38 426.07"/><polygon class="cls-12" points="453.88 397.56 453.88 423.5 449.38 420.92 449.38 401.69 449.38 400.35 449.38 395.04 453.88 397.56"/><polygon class="cls-11" points="453.88 500.55 445.27 505.38 440.77 502.86 449.38 498.02 453.88 500.55"/><path class="cls-13" d="M449.38,426.07v5.31a22.69,22.69,0,0,1-8,6c-3,1.29-6.73,1.79-9.58-.48l-.22-.2c-3-2.6-3.42-7.14-3.06-10.62a28.45,28.45,0,0,1,3.52-10.85c3-5.56,9.8-13.57,17.32-13.57v19.22l-4.72-2.72-1.07-.05-1,.89-.75,1.58.44,1.38Z"/><path class="cls-14" d="M449.38,400.35v1.34c-7.52,0-14.31,8-17.32,13.57a28.45,28.45,0,0,0-3.52,10.85c-.36,3.48.06,8,3.06,10.62l-5.6-4.66a6,6,0,0,1-1-2.59,14.39,14.39,0,0,1,0-4.58,30.12,30.12,0,0,1,.94-4.37,35,35,0,0,1,1.52-4.19,36.18,36.18,0,0,1,1.94-3.83,40.19,40.19,0,0,1,2.52-3.79A35,35,0,0,1,435,405.1,29.66,29.66,0,0,1,438.7,402a23.61,23.61,0,0,1,4-2.36c1.1-.5,2.24-.91,5.41,0Z"/><path class="cls-13" d="M444.52,397.44l3.59,2.15c-3.17-.91-4.31-.5-5.41,0a23.61,23.61,0,0,0-4,2.36A29.66,29.66,0,0,0,435,405.1a35,35,0,0,0-3.14,3.62,40.19,40.19,0,0,0-2.52,3.79,36.18,36.18,0,0,0-1.94,3.83,35,35,0,0,0-1.52,4.19,30.12,30.12,0,0,0-.94,4.37,14.39,14.39,0,0,0,0,4.58,6,6,0,0,0,1,2.59l-3.44-2.88a11.16,11.16,0,0,1-.75-3.84,21,21,0,0,1,.61-5.7,29.34,29.34,0,0,1,1.65-4.79,41.17,41.17,0,0,1,4.9-8.35,39,39,0,0,1,3.46-4,25,25,0,0,1,4.22-3.46,11,11,0,0,1,5.63-1.88,10.6,10.6,0,0,1,2.23.29Z"/><polygon class="cls-12" points="445.27 505.38 442.36 512.79 437.86 510.27 440.77 502.86 445.27 505.38"/><path class="cls-14" d="M442.14,396l2.37,1.42a10.6,10.6,0,0,0-2.23-.29,11,11,0,0,0-5.63,1.88,25,25,0,0,0-4.22,3.46,39,39,0,0,0-3.46,4,41.17,41.17,0,0,0-4.9,8.35,29.34,29.34,0,0,0-1.65,4.79,21,21,0,0,0-.61,5.7,11.16,11.16,0,0,0,.75,3.84l-.44-.37c-2.2-2.39-2.43-2.94-2.6-3.5a14.68,14.68,0,0,1-.36-5.34,26.32,26.32,0,0,1,1-5.84,25.57,25.57,0,0,1,2.47-5.38,41.27,41.27,0,0,1,3.43-5,26.38,26.38,0,0,1,4.66-4.67,18.12,18.12,0,0,1,7.34-3.48A6.5,6.5,0,0,1,442.14,396Z"/><polygon class="cls-17" points="435.69 542.55 435.69 545.87 434.13 544.97 430.85 543.07 426.8 540.73 417.9 535.58 417.9 532.27 435.69 542.55"/><polygon class="cls-10" points="430.85 543.07 434.13 544.97 426.99 556.72 426.99 575.91 422.62 578.47 422.62 557.3 430.85 543.07"/><polygon class="cls-12" points="430.85 543.07 422.62 557.3 422.62 578.47 418.56 576.13 418.56 554.96 426.8 540.73 430.85 543.07"/><polygon class="cls-18" points="389.92 508.65 389.92 511.25 384.1 514.62 384.1 512.01 389.92 508.65"/><polygon class="cls-12" points="389.92 508.54 389.92 508.65 384.1 512.01 384.1 511.89 378.22 503.12 384.03 499.76 389.92 508.54"/><path class="cls-10" d="M384.1,512v2.59l-9.56-5.51L376.4,508c.69-2.47.07-4.26-1.84-5.38l-83.79-48.73v-1.25l87.45,50.45,5.88,8.79Z"/><polygon class="cls-19" points="384.03 499.76 378.22 503.12 290.77 452.67 296.58 449.31 299.69 451.1 299.69 451.11 384.03 499.76"/><path class="cls-14" d="M374.56,502.64c1.91,1.12,2.53,2.91,1.84,5.38l-1.86,1.08-34.81,20.09L338,526.6l-87.45-50.45v-1.37l-5.89-5.39-5.1-2.95v-9.95l27.93-16.11,23.29,13.53Z"/><polygon class="cls-18" points="358.71 628.37 358.71 633.17 331.34 648.98 331.34 625.5 336.52 612.24 355.23 601.43 355.23 605.93 338.47 615.62 335.19 623.99 335.19 637.55 335.19 641.95 358.71 628.37"/><polygon class="cls-19" points="358.71 628.37 335.19 641.95 335.19 637.55 354.85 626.16 358.71 628.37"/><polygon class="cls-19" points="355.23 601.43 336.52 612.24 332.66 610.04 347.51 601.47 351.37 599.24 355.23 601.43"/><polygon class="cls-20" points="347.59 593.35 347.98 596.38 345.93 597.49 345.53 594.46 347.59 593.35"/><polygon class="cls-21" points="347.98 596.38 346.35 598.91 344.67 599.83 344.49 599.72 345.93 597.49 347.98 596.38"/><polygon class="cls-22" points="347.59 593.35 345.53 594.46 343.34 592.7 345.4 591.59 347.59 593.35"/><polygon class="cls-13" points="347.51 601.47 333.13 609.76 330.33 608.14 331.93 605.64 331.84 604.98 331.89 604.97 340.67 599.85 341.59 600.59 344.29 600.02 344.67 599.83 347.51 601.47"/><polygon class="cls-23" points="345.53 594.46 345.93 597.49 344.49 599.72 342.64 598.65 343.22 597.48 343.06 596.39 342.41 595.5 341.18 595.48 339.16 596.64 339.08 596.61 339.01 595.78 340.64 593.25 343.34 592.7 345.53 594.46"/><polygon class="cls-24" points="345.4 591.59 343.34 592.7 340.64 593.25 342.7 592.14 345.4 591.59"/><polygon class="cls-23" points="344.49 599.72 344.29 600.02 341.59 600.59 340.67 599.85 342.62 598.71 342.64 598.65 344.49 599.72"/><polygon class="cls-18" points="343.88 535.5 343.88 538.1 338.07 541.45 338.07 538.86 343.88 535.5"/><polygon class="cls-12" points="343.88 535.38 343.88 535.5 338.07 538.86 338.07 538.74 332.18 529.96 337.99 526.6 339.73 529.18 343.88 535.38"/><polygon class="cls-22" points="343.06 596.39 343.22 597.48 341.91 598.24 339.16 596.64 341.18 595.48 342.41 595.5 343.06 596.39"/><polygon class="cls-21" points="343.22 597.48 342.64 598.65 341.91 598.24 343.22 597.48"/><polygon class="cls-21" points="342.64 598.65 342.62 598.71 340.67 599.85 331.89 604.97 331.84 604.98 331.73 604.14 331.74 604.14 341.91 598.24 342.64 598.65"/><polygon class="cls-22" points="339.16 596.64 341.91 598.24 331.74 604.14 331.73 604.14 331.53 602.61 330.44 601.74 330.44 601.73 339.09 596.68 339.16 596.64"/><polygon class="cls-20" points="338.99 588.38 339.39 591.41 337.33 592.52 336.94 589.49 338.99 588.38"/><polygon class="cls-21" points="339.39 591.41 337.76 593.96 336.07 594.87 335.9 594.76 337.33 592.52 339.39 591.41"/><polygon class="cls-13" points="339.09 596.68 330.44 601.73 330.44 601.74 329.34 600.86 326.64 601.4 324.59 602.51 323.5 604.21 321.73 603.18 323.34 600.68 323.25 600.01 323.29 600 332.08 594.88 333 595.62 335.7 595.07 336.07 594.87 339.08 596.61 339.09 596.68"/><polygon class="cls-22" points="338.99 588.38 336.94 589.49 334.75 587.74 336.8 586.63 338.99 588.38"/><polygon class="cls-12" points="338.07 538.86 338.07 541.45 244.73 487.61 244.73 479.5 332.18 529.96 338.07 538.74 338.07 538.86"/><polygon class="cls-19" points="337.99 526.6 332.18 529.96 244.73 479.5 250.54 476.14 337.99 526.6"/><polygon class="cls-23" points="336.94 589.49 337.33 592.52 335.9 594.76 334.05 593.7 334.63 592.51 334.47 591.43 333.81 590.53 332.58 590.5 330.56 591.68 330.49 591.64 330.41 590.83 332.04 588.28 334.75 587.74 336.94 589.49"/><polygon class="cls-24" points="336.8 586.63 334.75 587.74 332.04 588.28 334.1 587.17 336.8 586.63"/><polygon class="cls-12" points="336.52 612.24 331.34 625.5 331.34 648.98 327.48 646.78 327.48 623.29 332.66 610.04 336.52 612.24"/><polygon class="cls-23" points="335.9 594.76 335.7 595.07 333 595.62 332.08 594.88 334.03 593.75 334.05 593.7 335.9 594.76"/><polygon class="cls-22" points="334.47 591.43 334.63 592.51 333.32 593.27 330.56 591.68 332.58 590.5 333.81 590.53 334.47 591.43"/><polygon class="cls-21" points="334.63 592.51 334.05 593.7 333.32 593.27 334.63 592.51"/><polygon class="cls-21" points="334.05 593.7 334.03 593.75 332.08 594.88 323.29 600 323.25 600.01 323.14 599.18 333.32 593.27 334.05 593.7"/><polygon class="cls-22" points="333.32 593.27 323.14 599.18 322.94 597.64 321.85 596.77 321.85 596.76 330.5 591.73 330.5 591.72 330.56 591.68 333.32 593.27"/><polygon class="cls-20" points="331.84 604.98 331.93 605.64 329.87 606.75 329.48 603.72 331.53 602.61 331.73 604.14 331.84 604.98"/><polygon class="cls-21" points="331.93 605.64 330.33 608.14 329.34 607.58 329.87 606.75 331.93 605.64"/><polygon class="cls-22" points="331.53 602.61 329.48 603.72 327.29 601.97 329.34 600.86 330.44 601.74 331.53 602.61"/><polygon class="cls-20" points="330.16 583.27 330.55 586.32 328.49 587.42 328.1 584.38 330.16 583.27"/><polygon class="cls-21" points="330.55 586.32 328.92 588.86 327.24 589.76 327.06 589.65 328.49 587.42 330.55 586.32"/><polygon class="cls-13" points="330.5 591.72 330.5 591.73 321.85 596.76 321.85 596.77 320.75 595.89 318.05 596.45 315.99 597.55 314.91 599.25 312.89 598.09 314.5 595.58 314.41 594.91 314.46 594.9 323.24 589.78 324.16 590.51 326.86 589.97 327.24 589.76 330.49 591.64 330.5 591.72"/><polygon class="cls-21" points="330.33 608.14 330.3 608.18 328.24 609.29 329.34 607.58 330.33 608.14"/><polygon class="cls-22" points="330.16 583.27 328.1 584.38 325.91 582.63 327.97 581.52 330.16 583.27"/><polygon class="cls-25" points="329.48 603.72 329.87 606.75 329.34 607.58 323.5 604.21 324.59 602.51 327.29 601.97 329.48 603.72"/><polygon class="cls-25" points="329.34 607.58 328.24 609.29 325.54 609.85 323.35 608.1 322.95 605.05 323.5 604.21 329.34 607.58"/><polygon class="cls-23" points="328.1 584.38 328.49 587.42 327.06 589.65 325.21 588.6 325.79 587.41 325.63 586.34 324.98 585.43 323.75 585.4 321.73 586.59 321.65 586.53 321.58 585.73 323.21 583.18 325.91 582.63 328.1 584.38"/><polygon class="cls-23" points="327.06 589.65 326.86 589.97 324.16 590.51 323.24 589.78 325.19 588.64 325.21 588.6 327.06 589.65"/><polygon class="cls-13" points="326.97 397.15 326.97 399.39 323.55 401.37 323.55 399.13 326.97 397.15"/><polygon class="cls-14" points="326.97 397.15 323.55 399.13 319.72 396.92 323.14 394.94 326.97 397.15"/><polygon class="cls-22" points="325.63 586.34 325.79 587.41 324.48 588.17 321.73 586.59 323.75 585.4 324.98 585.43 325.63 586.34"/><polygon class="cls-21" points="325.79 587.41 325.21 588.6 324.48 588.17 325.79 587.41"/><polygon class="cls-21" points="325.21 588.6 325.19 588.64 323.24 589.78 314.46 594.9 314.41 594.91 314.3 594.09 314.31 594.09 324.48 588.17 325.21 588.6"/><polygon class="cls-22" points="321.73 586.59 324.48 588.17 314.31 594.09 314.3 594.09 314.1 592.54 313.01 591.66 321.66 586.63 321.73 586.59"/><polygon class="cls-17" points="323.55 399.13 323.55 401.37 316.35 398.87 319.72 396.92 323.55 399.13"/><polygon class="cls-20" points="323.25 600.01 323.34 600.68 321.28 601.79 320.88 598.75 322.94 597.64 323.14 599.18 323.25 600.01"/><polygon class="cls-21" points="323.34 600.68 321.73 603.18 320.75 602.62 321.28 601.79 323.34 600.68"/><polygon class="cls-14" points="323.14 394.94 319.72 396.92 313.9 393.56 317.31 391.58 323.14 394.94"/><polygon class="cls-22" points="322.94 597.64 320.88 598.75 318.69 597 320.75 595.89 321.85 596.77 322.94 597.64"/><polygon class="cls-20" points="321.74 578.41 322.13 581.46 320.08 582.57 319.68 579.52 321.74 578.41"/><polygon class="cls-21" points="322.13 581.46 320.5 584 318.82 584.9 318.64 584.79 320.08 582.57 322.13 581.46"/><polygon class="cls-22" points="321.74 578.41 319.68 579.52 317.49 577.77 319.55 576.66 321.74 578.41"/><polygon class="cls-21" points="321.73 603.18 321.7 603.23 319.65 604.34 320.75 602.62 321.73 603.18"/><polygon class="cls-13" points="321.65 586.53 321.66 586.63 313.01 591.66 311.92 590.78 309.21 591.35 307.16 592.46 306.07 594.14 304.47 593.22 306.08 590.72 305.99 590.04 306.04 590.03 314.82 584.91 315.74 585.65 318.44 585.11 318.82 584.9 321.65 586.53"/><polygon class="cls-25" points="320.88 598.75 321.28 601.79 320.75 602.62 314.91 599.25 315.99 597.55 318.69 597 320.88 598.75"/><polygon class="cls-25" points="320.75 602.62 319.65 604.34 316.94 604.88 314.75 603.13 314.36 600.1 314.91 599.25 320.75 602.62"/><polygon class="cls-23" points="319.68 579.52 320.08 582.57 318.64 584.79 316.79 583.74 317.37 582.55 317.21 581.48 316.56 580.58 315.33 580.54 313.31 581.73 313.23 581.67 313.16 580.87 314.79 578.33 317.49 577.77 319.68 579.52"/><polygon class="cls-17" points="319.72 396.92 316.35 398.87 309.84 396.6 309.84 395.89 313.9 393.56 319.72 396.92"/><polygon class="cls-24" points="319.55 576.66 317.49 577.77 314.79 578.33 316.85 577.22 319.55 576.66"/><polygon class="cls-23" points="318.64 584.79 318.44 585.11 315.74 585.65 314.82 584.91 316.77 583.78 316.79 583.74 318.64 584.79"/><polygon class="cls-22" points="317.21 581.48 317.37 582.55 316.06 583.32 313.31 581.73 315.33 580.54 316.56 580.58 317.21 581.48"/><path class="cls-14" d="M298.42,380.69l18.89,10.9-3.41,2-4.06-2.34-46.2,26.67,4.06,2.34-3.41,2L252,415.11v-7.63l33.23-19.18Zm2.13,8.51c0-.8-1-1.05-1.62-1.05s-1.63.25-1.63,1.05,1,1.06,1.63,1.06S300.55,390,300.55,389.2Zm-6.26,3.62c0-.8-1-1.05-1.62-1.05S291,392,291,392.82s1,1,1.63,1S294.29,393.61,294.29,392.82ZM288,396.43c0-.79-1-1.05-1.62-1.05s-1.63.26-1.63,1.05,1,1.05,1.63,1.05S288,397.23,288,396.43Zm-14.2,7.77c0-.8-1-1.05-1.63-1.05s-1.63.25-1.63,1.05,1,1.06,1.63,1.06S273.83,405,273.83,404.2Zm-6.26,3.62c0-.79-1-1.05-1.63-1.05s-1.63.26-1.63,1.05,1,1.06,1.63,1.06S267.57,408.61,267.57,407.82Zm-6.26,3.62c0-.8-1-1.06-1.63-1.06s-1.63.26-1.63,1.06,1,1,1.63,1S261.31,412.23,261.31,411.44Z"/><polygon class="cls-21" points="316.79 583.74 316.77 583.78 314.82 584.91 306.04 590.03 305.99 590.04 305.88 589.23 305.89 589.23 316.06 583.32 316.79 583.74"/><polygon class="cls-22" points="313.31 581.73 316.06 583.32 305.89 589.23 305.88 589.23 305.68 587.68 304.59 586.8 313.24 581.76 313.31 581.73"/><polygon class="cls-20" points="314.41 594.91 314.5 595.58 312.44 596.68 312.05 593.65 314.1 592.54 314.3 594.09 314.41 594.91"/><polygon class="cls-21" points="314.5 595.58 312.89 598.09 311.91 597.51 312.44 596.68 314.5 595.58"/><polygon class="cls-22" points="314.1 592.54 312.05 593.65 309.86 591.89 311.92 590.78 313.01 591.66 314.1 592.54"/><polygon class="cls-17" points="313.9 393.56 309.84 395.89 309.84 391.21 313.9 393.56"/><polygon class="cls-20" points="313.08 573.41 313.47 576.46 311.42 577.57 311.02 574.52 313.08 573.41"/><polygon class="cls-21" points="313.47 576.46 311.84 579 310.16 579.9 309.98 579.8 311.42 577.57 313.47 576.46"/><polygon class="cls-13" points="313.23 581.67 313.24 581.76 304.59 586.8 303.49 585.92 300.79 586.49 298.74 587.6 297.65 589.28 295.81 588.22 297.42 585.72 297.33 585.05 297.38 585.04 306.16 579.92 307.08 580.65 309.79 580.11 310.16 579.9 313.23 581.67"/><polygon class="cls-22" points="313.08 573.41 311.02 574.52 308.83 572.77 310.89 571.66 313.08 573.41"/><polygon class="cls-21" points="311.91 597.51 312.89 598.09 312.87 598.12 310.81 599.23 311.91 597.51"/><polygon class="cls-25" points="312.05 593.65 312.44 596.68 311.91 597.51 306.07 594.14 307.16 592.46 309.86 591.89 312.05 593.65"/><polygon class="cls-24" points="311.92 590.78 309.86 591.89 307.16 592.46 309.21 591.35 311.92 590.78"/><polygon class="cls-25" points="311.91 597.51 310.81 599.23 308.11 599.78 305.92 598.02 305.52 595 306.07 594.14 311.91 597.51"/><polygon class="cls-23" points="311.02 574.52 311.42 577.57 309.98 579.8 308.14 578.74 308.72 577.55 308.55 576.48 307.9 575.58 306.67 575.54 304.65 576.73 304.57 576.67 304.5 575.87 306.13 573.33 308.83 572.77 311.02 574.52"/><polygon class="cls-24" points="310.89 571.66 308.83 572.77 306.13 573.33 308.19 572.22 310.89 571.66"/><polygon class="cls-23" points="308.14 578.74 309.98 579.8 309.79 580.11 307.08 580.65 306.16 579.92 308.12 578.78 308.14 578.74"/><polygon class="cls-13" points="309.84 391.21 309.84 395.89 267.7 420.23 263.64 417.88 309.84 391.21"/><polygon class="cls-22" points="308.55 576.48 308.72 577.55 307.41 578.32 304.65 576.73 306.67 575.54 307.9 575.58 308.55 576.48"/><polygon class="cls-21" points="308.72 577.55 308.14 578.74 307.41 578.32 308.72 577.55"/><polygon class="cls-21" points="308.14 578.74 308.12 578.78 306.16 579.92 297.38 585.04 297.33 585.05 297.23 584.23 307.41 578.32 308.14 578.74"/><polygon class="cls-22" points="307.41 578.32 297.23 584.23 297.03 582.68 295.93 581.8 304.58 576.76 304.65 576.73 307.41 578.32"/><polygon class="cls-20" points="305.99 590.04 306.08 590.72 304.02 591.83 303.63 588.79 305.68 587.68 305.88 589.23 305.99 590.04"/><polygon class="cls-21" points="306.08 590.72 304.47 593.22 303.49 592.65 304.02 591.83 306.08 590.72"/><polygon class="cls-22" points="305.68 587.68 303.63 588.79 301.44 587.03 303.49 585.92 304.59 586.8 305.68 587.68"/><polygon class="cls-20" points="304.23 568.32 304.63 571.35 302.57 572.46 302.18 569.41 304.23 568.32"/><polygon class="cls-21" points="304.63 571.35 303 573.88 301.31 574.79 301.13 574.7 302.57 572.46 304.63 571.35"/><polygon class="cls-13" points="304.57 576.67 304.58 576.76 295.93 581.8 294.84 580.92 292.14 581.49 290.08 582.6 289 584.28 286.97 583.12 288.58 580.62 288.49 579.95 288.53 579.93 297.32 574.82 298.24 575.55 300.94 575 301.31 574.79 304.57 576.67"/><polygon class="cls-21" points="304.47 593.22 304.45 593.25 302.39 594.37 303.49 592.65 304.47 593.22"/><polygon class="cls-22" points="304.23 568.32 302.18 569.41 299.99 567.66 302.04 566.55 304.23 568.32"/><polygon class="cls-25" points="303.63 588.79 304.02 591.83 303.49 592.65 297.65 589.28 298.74 587.6 301.44 587.03 303.63 588.79"/><polygon class="cls-25" points="297.65 589.28 303.49 592.65 302.39 594.37 299.69 594.92 297.5 593.16 297.1 590.13 297.65 589.28"/><polygon class="cls-24" points="303.49 585.92 301.44 587.03 298.74 587.6 300.79 586.49 303.49 585.92"/><polygon class="cls-23" points="302.18 569.41 302.57 572.46 301.13 574.7 299.29 573.63 299.87 572.45 299.71 571.37 299.05 570.47 297.82 570.45 295.81 571.62 295.73 571.58 295.65 570.75 297.28 568.22 299.99 567.66 302.18 569.41"/><polygon class="cls-24" points="302.04 566.55 299.99 567.66 297.28 568.22 299.34 567.11 302.04 566.55"/><polygon class="cls-23" points="299.29 573.63 301.13 574.7 300.94 575 298.24 575.55 297.32 574.82 299.27 573.67 299.29 573.63"/><path class="cls-26" d="M298.93,388.15c.6,0,1.62.25,1.62,1.05s-1,1.06-1.62,1.06-1.63-.27-1.63-1.06S298.32,388.15,298.93,388.15Z"/><polygon class="cls-22" points="299.71 571.37 299.87 572.45 298.56 573.21 295.81 571.62 297.82 570.45 299.05 570.47 299.71 571.37"/><polygon class="cls-21" points="299.87 572.45 299.29 573.63 298.56 573.21 299.87 572.45"/><polygon class="cls-13" points="299.69 446.15 299.69 451.1 296.58 449.31 290.77 452.67 290.77 451.31 299.69 446.15"/><polygon class="cls-27" points="299.69 446.15 290.77 451.31 284.88 445.89 293.8 440.75 299.69 446.15"/><polygon class="cls-21" points="298.56 573.21 299.29 573.63 299.27 573.67 297.32 574.82 288.53 579.93 288.49 579.95 288.38 579.12 298.56 573.21"/><polygon class="cls-22" points="298.56 573.21 288.38 579.12 288.18 577.58 287.09 576.71 287.09 576.7 295.74 571.65 295.81 571.62 298.56 573.21"/><polygon class="cls-13" points="294.31 369.3 298.42 380.69 285.23 388.3 283.84 385.88 278.17 370.2 252.56 385 252 385 252 379.21 279.13 363.56 294.31 369.3"/><polygon class="cls-20" points="297.33 585.05 297.42 585.72 295.36 586.83 294.97 583.79 297.03 582.68 297.23 584.23 297.33 585.05"/><polygon class="cls-21" points="297.42 585.72 295.81 588.22 294.83 587.65 295.36 586.83 297.42 585.72"/><polygon class="cls-10" points="297.2 403.89 290.11 414.01 287.38 415.58 294.99 405.17 297.2 403.89"/><polygon class="cls-22" points="297.03 582.68 294.97 583.79 292.78 582.03 294.84 580.92 295.93 581.8 297.03 582.68"/><polygon class="cls-20" points="295.89 563.5 296.28 566.52 294.22 567.63 293.83 564.61 295.89 563.5"/><polygon class="cls-21" points="296.28 566.52 294.65 569.07 292.96 569.98 292.78 569.88 294.22 567.63 296.28 566.52"/><polygon class="cls-22" points="295.89 563.5 293.83 564.61 291.64 562.85 293.7 561.74 295.89 563.5"/><polygon class="cls-21" points="295.81 588.22 295.79 588.25 293.73 589.37 294.83 587.65 295.81 588.22"/><polygon class="cls-13" points="295.73 571.58 295.74 571.65 287.09 576.7 287.09 576.71 285.99 575.83 283.29 576.38 281.23 577.49 280.15 579.17 278.62 578.29 280.23 575.79 280.14 575.13 280.18 575.12 288.97 570 289.89 570.74 292.59 570.17 292.96 569.98 295.73 571.58"/><polygon class="cls-25" points="294.97 583.79 295.36 586.83 294.83 587.65 289 584.28 290.08 582.6 292.78 582.03 294.97 583.79"/><polygon class="cls-12" points="277.31 415.38 294.99 405.17 287.38 415.58 277.31 421.4 277.31 415.38"/><polygon class="cls-24" points="294.84 580.92 292.78 582.03 290.08 582.6 292.14 581.49 294.84 580.92"/><polygon class="cls-25" points="289 584.28 294.83 587.65 293.73 589.37 291.03 589.92 289.89 589 289.89 588.63 288.82 588.02 288.45 585.13 289 584.28"/><polygon class="cls-23" points="293.83 564.61 294.22 567.63 292.78 569.88 290.94 568.82 291.52 567.63 291.36 566.54 290.71 565.64 289.48 565.63 287.46 566.8 287.38 566.75 287.31 565.93 288.94 563.39 291.64 562.85 293.83 564.61"/><path class="cls-26" d="M292.67,391.77c.6,0,1.62.25,1.62,1.05s-1,1-1.62,1-1.63-.25-1.63-1S292.06,391.77,292.67,391.77Z"/><polygon class="cls-28" points="293.8 440.75 284.88 445.89 267.48 435.86 276.4 430.7 277.31 431.24 277.31 438.63 285.28 443.23 286.99 442.24 286.99 436.81 293.8 440.75"/><polygon class="cls-24" points="293.7 561.74 291.64 562.85 288.94 563.39 290.99 562.29 293.7 561.74"/><polygon class="cls-23" points="290.94 568.82 292.78 569.88 292.59 570.17 289.89 570.74 288.97 570 290.92 568.86 290.94 568.82"/><polygon class="cls-22" points="291.36 566.54 291.52 567.63 290.21 568.38 287.46 566.8 289.48 565.63 290.71 565.64 291.36 566.54"/><polygon class="cls-21" points="291.52 567.63 290.94 568.82 290.21 568.38 291.52 567.63"/><polygon class="cls-21" points="290.21 568.38 290.94 568.82 290.92 568.86 288.97 570 280.18 575.12 280.14 575.13 280.03 574.3 290.21 568.38"/><polygon class="cls-17" points="290.77 452.67 290.77 453.92 267.48 440.38 267.48 435.86 284.88 445.89 290.77 451.31 290.77 452.67"/><polygon class="cls-22" points="290.21 568.38 280.03 574.3 279.83 572.75 278.74 571.88 278.74 571.88 287.39 566.84 287.46 566.8 290.21 568.38"/><polygon class="cls-10" points="290.11 414.01 286.99 418.46 286.99 436.81 286.99 442.24 285.28 443.23 285.28 418.46 287.38 415.58 290.11 414.01"/><polygon class="cls-18" points="289.89 589 289.89 593.43 262.52 609.25 262.52 585.75 267.7 572.5 286.41 561.7 286.41 566.2 277.83 571.15 277.64 571 274.94 571.55 272.88 572.66 271.51 574.79 269.65 575.88 266.37 584.25 266.37 597.83 266.37 602.22 289.62 588.79 289.89 589"/><polygon class="cls-19" points="288.84 588.16 289.62 588.79 266.37 602.22 266.37 597.83 286.03 586.43 288.82 588.02 288.84 588.16"/><polygon class="cls-20" points="288.49 579.95 288.58 580.62 286.52 581.73 286.12 578.68 288.18 577.58 288.38 579.12 288.49 579.95"/><polygon class="cls-21" points="288.58 580.62 286.97 583.12 285.99 582.54 286.52 581.73 288.58 580.62"/><polygon class="cls-22" points="288.18 577.58 286.12 578.68 283.93 576.93 285.99 575.83 287.09 576.71 288.18 577.58"/><path class="cls-26" d="M286.41,395.38c.6,0,1.62.26,1.62,1.05s-1,1.05-1.62,1.05-1.63-.25-1.63-1.05S285.8,395.38,286.41,395.38Z"/><polygon class="cls-13" points="287.39 566.84 278.74 571.88 278.74 571.88 277.83 571.15 286.41 566.2 287.38 566.75 287.39 566.84"/><polygon class="cls-12" points="287.38 415.58 285.28 418.46 285.28 443.23 277.31 438.63 277.31 431.24 277.31 428.06 277.35 428.05 277.35 425.8 277.31 425.77 277.31 421.4 287.38 415.58"/><polygon class="cls-21" points="286.97 583.12 286.94 583.15 284.89 584.26 285.99 582.54 286.97 583.12"/><polygon class="cls-25" points="286.12 578.68 286.52 581.73 285.99 582.54 280.15 579.17 281.23 577.49 283.93 576.93 286.12 578.68"/><polygon class="cls-19" points="286.41 561.7 267.7 572.5 263.84 570.3 282.55 559.5 286.41 561.7"/><polygon class="cls-25" points="285.99 582.54 284.89 584.26 282.18 584.82 279.99 583.07 279.6 580.02 280.15 579.17 285.99 582.54"/><polygon class="cls-13" points="285.23 388.3 252 407.49 252 385 252.56 385 258.23 400.68 283.84 385.88 285.23 388.3"/><polygon class="cls-2" points="278.17 370.2 283.84 385.88 258.23 400.68 252.56 385 278.17 370.2"/><polygon class="cls-20" points="280.14 575.13 280.23 575.79 278.17 576.9 277.78 573.87 279.83 572.75 280.03 574.3 280.14 575.13"/><polygon class="cls-21" points="280.23 575.79 278.62 578.29 277.64 577.73 278.17 576.9 280.23 575.79"/><polygon class="cls-22" points="279.83 572.75 277.78 573.87 275.83 572.3 277.83 571.15 278.74 571.88 279.83 572.75"/><polygon class="cls-17" points="279.13 363.56 252 379.21 252 376.83 275.01 363.56 279.13 363.56"/><polygon class="cls-21" points="278.62 578.29 278.6 578.34 276.54 579.45 277.64 577.73 278.62 578.29"/><polygon class="cls-25" points="277.78 573.87 278.17 576.9 277.64 577.73 272.04 574.5 275.83 572.3 277.78 573.87"/><polygon class="cls-25" points="277.64 577.73 276.54 579.45 273.84 580 271.65 578.25 271.25 575.21 271.51 574.79 272.88 572.66 275.59 572.12 275.83 572.3 272.04 574.5 277.64 577.73"/><polygon class="cls-24" points="277.64 571 275.59 572.12 272.88 572.66 274.94 571.55 277.64 571"/><polygon class="cls-13" points="277.31 425.81 277.31 428.06 273.94 430.01 273.94 427.76 277.31 425.81"/><polygon class="cls-14" points="277.31 425.77 277.31 425.81 273.94 427.76 270.11 425.56 273.52 423.58 277.31 425.77"/><polygon class="cls-17" points="273.94 427.76 273.94 430.01 266.2 427.81 270.11 425.56 273.94 427.76"/><polygon class="cls-14" points="273.52 423.58 270.11 425.56 264.29 422.2 267.7 420.23 268.3 420.57 273.52 423.58"/><ellipse class="cls-26" cx="272.2" cy="404.2" rx="1.63" ry="1.05"/><polygon class="cls-17" points="270.11 425.56 266.2 427.81 260.41 426.18 258.91 425.31 264.29 422.2 270.11 425.56"/><polygon class="cls-12" points="267.7 572.5 262.52 585.75 262.52 609.25 258.66 607.04 258.66 583.57 263.84 570.3 267.7 572.5"/><path class="cls-26" d="M265.94,406.77c.61,0,1.63.26,1.63,1.05s-1,1.06-1.63,1.06-1.63-.27-1.63-1.06S265.34,406.77,265.94,406.77Z"/><polygon class="cls-17" points="252 415.12 264.29 422.2 258.91 425.31 255.5 423.35 254.78 422.93 252 421.32 252 415.12"/><path class="cls-26" d="M259.68,410.38c.61,0,1.63.26,1.63,1.06s-1,1-1.63,1-1.63-.25-1.63-1S259.08,410.38,259.68,410.38Z"/><polygon class="cls-10" points="255.5 423.35 252 428.35 252 426.74 254.78 422.93 255.5 423.35"/><polygon class="cls-12" points="254.78 422.93 252 426.74 252 421.32 254.78 422.93"/><polygon class="cls-10" points="252 426.74 252 428.35 239.55 446.12 239.55 456.5 239.55 466.44 239.55 469.88 237.85 470.88 237.85 446.12 252 426.74"/><polygon class="cls-12" points="252 421.32 252 426.74 237.85 446.12 237.85 470.88 229.87 466.26 229.87 460.86 229.87 448.79 234.24 446.26 234.24 436.04 247.03 418.45 252 421.32"/><polygon class="cls-17" points="252 415.12 252 421.32 247.03 418.45 242.88 416.06 237.16 399.92 241.28 399.92 245.39 411.31 252 415.12"/><polygon class="cls-14" points="252 407.49 252 415.12 245.39 411.31 252 407.49"/><polygon class="cls-13" points="252 385 252 407.49 245.39 411.31 241.28 399.92 247.04 382.07 252 379.21 252 385"/><polygon class="cls-17" points="252 376.83 252 379.21 247.04 382.07 242.92 382.07 252 376.83"/><polygon class="cls-13" points="250.54 474.79 250.54 476.14 244.73 479.5 244.73 487.61 241.62 489.39 241.62 479.94 250.54 474.79"/><polygon class="cls-27" points="250.54 474.79 241.62 479.94 235.74 474.54 244.65 469.38 250.54 474.79"/><polygon class="cls-17" points="247.04 382.07 241.28 399.92 237.16 399.92 242.92 382.07 247.04 382.07"/><polygon class="cls-28" points="244.65 469.38 235.74 474.54 218.33 464.5 227.25 459.35 229.87 460.86 229.87 466.26 237.85 470.88 239.55 469.88 239.55 466.44 244.65 469.38"/><polygon class="cls-17" points="241.62 479.94 241.62 489.39 218.33 475.96 218.33 464.5 235.74 474.54 241.62 479.94"/><polygon class="cls-12" points="234.24 436.04 234.24 446.26 229.87 443.75 229.87 442.05 234.24 436.04"/><polygon class="cls-12" points="234.24 446.26 229.87 448.79 229.87 443.75 234.24 446.26"/></g></svg>