<svg xmlns="http://www.w3.org/2000/svg" viewBox="0 0 1130.46 792"><defs><style>.cls-1{fill:#f9dd75;}.cls-2{fill:#eaddd7;}.cls-3{fill:#dac1ac;}.cls-29,.cls-30,.cls-31,.cls-4{fill:none;}.cls-28,.cls-5{fill:#fbf4e8;}.cls-6{fill:#fefbf6;}.cls-7{fill:#684158;}.cls-8{fill:#aa848b;}.cls-9{fill:#926573;}.cls-10{fill:#e1d2bc;}.cls-11{fill:#f4fcf8;}.cls-12{fill:#d8beac;}.cls-13{fill:#faf8e7;}.cls-14{fill:#b59e8d;}.cls-15{fill:#9f8285;}.cls-16{fill:#eadbc7;}.cls-17{fill:#d5b3ab;}.cls-18{fill:#fafdf6;}.cls-19{fill:#fff;}.cls-20{fill:#84666f;}.cls-21{fill:#8b676e;}.cls-22{fill:#e4381e;}.cls-23{fill:#8c8883;}.cls-24{fill:#e2dedc;}.cls-25{fill:#a5998c;}.cls-26{fill:#d6cfc7;}.cls-27{fill:#9c6;}.cls-28{stroke:#fbf4e8;}.cls-28,.cls-29,.cls-30,.cls-31{stroke-miterlimit:10;}.cls-29,.cls-30,.cls-31{stroke:#617257;stroke-linecap:round;}.cls-29{stroke-width:3px;}.cls-30{stroke-width:2.5px;}.cls-31{stroke-width:2px;}</style></defs><g id="Background"><polygon class="cls-1" points="1024.89 131.59 1024.89 659.85 553.39 387.63 553.39 131.59 1024.89 131.59"/><polygon class="cls-2" points="1024.89 659.85 1024.89 720.98 81.89 720.98 81.89 659.85 553.39 387.63 1024.89 659.85"/><path class="cls-3" d="M81.89,131.59V659.84l471.5-272.21v-256ZM198.13,572.23l-95.9,55.36V395l90.07-52h0l5.83-3.35ZM311.78,506.6,215.89,562V329.36l90.07-52,5.82-3.35ZM425.44,441l-95.89,55.37V263.74l90.07-52,5.82-3.35ZM539.1,375.36l-95.9,55.37V198.13l90.08-52,5.82-3.36Z"/><polygon class="cls-4" points="192.3 343 192.3 568.88 102.23 620.88 102.23 394.99 192.3 343"/><polygon class="cls-4" points="305.96 277.37 305.96 503.25 215.89 555.25 215.89 329.37 305.96 277.37"/><polygon class="cls-4" points="419.62 211.75 419.62 437.63 329.55 489.63 329.55 263.75 419.62 211.75"/><polygon class="cls-4" points="533.28 146.13 533.28 372.01 443.2 424.01 443.2 198.13 533.28 146.13"/><polygon class="cls-5" points="539.1 142.76 539.1 375.37 533.28 372.01 533.28 146.13 539.1 142.76"/><polygon class="cls-6" points="539.1 375.37 443.2 430.74 443.2 424.01 533.28 372.01 539.1 375.37"/><polygon class="cls-4" points="533.28 146.13 533.28 372.01 443.2 424.01 443.2 198.13 533.28 146.13"/><polygon class="cls-5" points="425.44 208.38 425.44 440.99 419.62 437.63 419.62 211.75 425.44 208.38"/><polygon class="cls-6" points="425.44 440.99 329.55 496.36 329.55 489.63 419.62 437.63 425.44 440.99"/><polygon class="cls-4" points="419.62 211.75 419.62 437.63 329.55 489.63 329.55 263.75 419.62 211.75"/><polygon class="cls-5" points="311.78 274 311.78 506.61 305.96 503.25 305.96 277.37 311.78 274"/><polygon class="cls-6" points="311.78 506.61 215.89 561.98 215.89 555.25 305.96 503.25 311.78 506.61"/><polygon class="cls-4" points="305.96 277.37 305.96 503.25 215.89 555.25 215.89 329.37 305.96 277.37"/><polygon class="cls-5" points="198.13 339.63 198.13 572.24 192.3 568.88 192.3 342.99 198.13 339.63"/><polygon class="cls-6" points="198.13 572.24 102.23 627.6 102.23 620.88 192.3 568.88 198.13 572.24"/><polygon class="cls-4" points="192.3 343 192.3 568.88 102.23 620.88 102.23 394.99 192.3 343"/><line class="cls-4" x1="1008.23" y1="666.14" x2="1011.19" y2="667.76"/></g><g id="Objects"><polygon class="cls-7" points="1024.89 406.46 1024.89 659.85 1011.19 667.76 1011.19 426.93 1011.19 422.64 1011.19 414.38 1024.89 406.46"/><polygon class="cls-8" points="1024.89 406.46 1011.19 414.38 1008.23 412.75 1021.93 404.85 1024.89 406.46"/><polygon class="cls-9" points="1011.19 426.93 1011.19 667.76 1008.23 666.14 1008.23 641.68 1008.23 637.92 1008.23 635.53 1008.23 616.46 1008.23 612.7 1008.23 610.29 1008.23 591.22 1008.23 587.46 1008.23 585.07 1008.23 565.99 1008.23 562.23 1008.23 559.84 1008.23 540.75 1008.23 537 1008.23 534.61 1008.23 515.52 1008.23 511.76 1008.23 509.38 1008.23 490.3 1008.23 486.54 1008.23 484.14 1008.23 465.06 1008.23 461.31 1008.23 458.9 1008.23 439.82 1008.23 436.06 1008.23 433.68 1008.23 428.63 1011.19 426.93"/><polygon class="cls-7" points="1011.19 422.64 1011.19 426.93 1008.23 428.63 1003.86 431.15 1001.79 432.36 998.53 434.24 982.01 443.77 979.93 444.96 976.68 446.85 960.15 456.38 959.44 456.8 959.44 452.52 1011.19 422.64"/><polygon class="cls-9" points="1011.19 414.38 1011.19 422.64 1008.23 421.04 1008.23 412.75 1011.19 414.38"/><polygon class="cls-8" points="1011.19 422.64 959.44 452.52 956.48 450.9 956.83 450.7 958.89 449.51 958.9 449.51 970.1 443.05 973.35 441.17 975.42 439.98 991.95 430.44 995.2 428.56 997.28 427.36 1008.23 421.04 1011.19 422.64"/><polygon class="cls-10" points="1008.23 637.92 1008.23 641.68 953.63 610.16 945.53 605.49 945.51 604.13 946.48 602.27 1008.23 637.92"/><polygon class="cls-11" points="1008.23 635.53 1008.23 637.92 946.48 602.27 947.43 601.12 948.26 600.91 953.63 604.01 1008.23 635.53"/><polygon class="cls-10" points="1008.23 612.7 1008.23 616.46 953.63 584.93 945.53 580.25 945.51 578.89 946.48 577.04 1008.23 612.7"/><polygon class="cls-11" points="1008.23 610.29 1008.23 612.7 946.48 577.04 947.43 575.88 948.26 575.67 953.63 578.77 1008.23 610.29"/><polygon class="cls-10" points="1008.23 587.46 1008.23 591.22 953.63 559.71 953.63 559.7 945.53 555.02 945.51 553.66 946.48 551.8 1008.23 587.46"/><polygon class="cls-11" points="1008.23 585.07 1008.23 587.46 946.48 551.8 947.43 550.65 948.26 550.45 953.63 553.54 1008.23 585.07"/><polygon class="cls-10" points="1008.23 562.23 1008.23 565.99 953.63 534.47 945.53 529.78 945.51 528.43 946.48 526.58 1008.23 562.23"/><polygon class="cls-11" points="1008.23 559.84 1008.23 562.23 946.48 526.58 947.43 525.41 948.26 525.22 953.63 528.32 1008.23 559.84"/><polygon class="cls-10" points="1008.23 537 1008.23 540.75 953.63 509.24 945.53 504.56 945.51 503.19 946.48 501.35 1008.23 537"/><polygon class="cls-11" points="1008.23 534.61 1008.23 537 946.48 501.35 947.43 500.19 948.26 499.99 953.63 503.08 1008.23 534.61"/><polygon class="cls-10" points="1008.23 511.76 1008.23 515.52 953.63 484 945.53 479.32 945.51 477.96 946.48 476.12 1008.23 511.76"/><polygon class="cls-11" points="1008.23 509.38 1008.23 511.76 946.48 476.12 947.43 474.95 948.26 474.75 953.63 477.86 1008.23 509.38"/><polygon class="cls-10" points="1008.23 486.54 1008.23 490.3 953.63 458.77 945.53 454.1 945.51 452.74 946.48 450.88 1008.23 486.54"/><polygon class="cls-11" points="1008.23 484.14 1008.23 486.54 946.48 450.88 947.43 449.73 948.25 449.51 948.26 449.51 956.48 454.26 956.48 455.19 959.44 456.8 960.15 456.38 1008.23 484.14"/><polygon class="cls-10" points="1008.23 461.31 1008.23 465.06 976.68 446.85 979.93 444.96 1008.23 461.31"/><polygon class="cls-11" points="1008.23 458.9 1008.23 461.31 979.93 444.96 982.01 443.77 1008.23 458.9"/><polygon class="cls-10" points="1008.23 436.06 1008.23 439.82 998.53 434.24 1001.79 432.36 1008.23 436.06"/><polygon class="cls-11" points="1008.23 433.68 1008.23 436.06 1001.79 432.36 1003.86 431.15 1008.23 433.68"/><polygon class="cls-11" points="997.28 427.36 995.2 428.56 946.48 400.42 947.43 399.26 948.26 399.06 953.63 402.15 997.28 427.36"/><polygon class="cls-10" points="995.2 428.56 991.95 430.44 953.63 408.31 945.53 403.63 945.51 402.27 946.48 400.42 995.2 428.56"/><polygon class="cls-11" points="975.42 439.98 973.35 441.17 946.48 425.64 947.43 424.5 948.26 424.29 953.63 427.38 975.42 439.98"/><polygon class="cls-10" points="973.35 441.17 970.1 443.05 953.63 433.55 945.53 428.87 945.51 427.5 946.48 425.64 973.35 441.17"/><polygon class="cls-9" points="959.44 452.52 959.44 456.8 956.48 455.19 956.48 454.26 956.48 450.9 959.44 452.52"/><polygon class="cls-11" points="953.63 446.46 958.89 449.51 956.83 450.7 891.2 412.81 892.16 411.67 893.02 411.48 896.16 413.29 936.97 436.85 939.93 438.56 953.63 446.46"/><polygon class="cls-10" points="956.83 450.7 956.48 450.9 956.48 454.26 948.26 449.51 948.25 449.51 939.93 444.71 939.93 444.7 936.97 443 936.97 443 890.83 416.37 890.28 416.05 890.24 414.67 891.2 412.81 956.83 450.7"/><polygon class="cls-7" points="945.53 428.87 953.63 433.55 953.63 446.46 939.93 438.56 939.93 388.01 939.93 383.75 939.93 375.46 953.63 367.56 953.63 402.15 948.26 399.06 947.43 399.26 946.48 400.42 945.51 402.27 945.53 403.63 953.63 408.31 953.63 427.38 948.26 424.29 947.43 424.5 946.48 425.64 945.51 427.5 945.53 428.87"/><polygon class="cls-7" points="953.63 610.16 953.63 620.93 939.93 628.86 939.93 444.71 948.25 449.51 947.43 449.73 946.48 450.88 945.51 452.74 945.53 454.1 953.63 458.77 953.63 477.86 948.26 474.75 947.43 474.95 946.48 476.12 945.51 477.96 945.53 479.32 953.63 484 953.63 503.08 948.26 499.99 947.43 500.19 946.48 501.35 945.51 503.19 945.53 504.56 953.63 509.24 953.63 528.32 948.26 525.22 947.43 525.41 946.48 526.58 945.51 528.43 945.53 529.78 953.63 534.47 953.63 553.54 948.26 550.45 947.43 550.65 946.48 551.8 945.51 553.66 945.53 555.02 953.63 559.7 953.63 559.71 953.63 578.77 948.26 575.67 947.43 575.88 946.48 577.04 945.51 578.89 945.53 580.25 953.63 584.93 953.63 604.01 948.26 600.91 947.43 601.12 946.48 602.27 945.51 604.13 945.53 605.49 953.63 610.16"/><polygon class="cls-8" points="953.63 367.56 939.93 375.46 936.97 373.85 950.67 365.94 953.63 367.56"/><polygon class="cls-9" points="939.93 444.71 939.93 628.86 936.97 627.24 936.97 443 939.93 444.7 939.93 444.71"/><polygon class="cls-9" points="939.93 388.01 939.93 438.56 936.97 436.85 936.97 389.73 939.93 388.01"/><polygon class="cls-7" points="939.93 383.75 939.93 388.01 936.97 389.73 896.16 413.29 893.02 411.48 892.16 411.67 891.2 412.81 890.24 414.67 890.28 416.05 890.83 416.37 888.18 417.88 888.18 413.62 939.93 383.75"/><polygon class="cls-9" points="939.93 375.46 939.93 383.75 936.97 382.13 936.97 373.85 939.93 375.46"/><polygon class="cls-8" points="939.93 383.75 888.18 413.62 885.22 412 936.97 382.13 939.93 383.75"/><polygon class="cls-9" points="888.18 413.62 888.18 417.88 885.22 416.27 885.22 412 888.18 413.62"/><polygon class="cls-7" points="883.5 322.6 883.5 575.99 869.79 583.89 869.79 343.06 869.79 338.79 869.79 330.5 883.5 322.6"/><polygon class="cls-8" points="883.5 322.6 869.79 330.5 866.83 328.88 880.53 320.98 883.5 322.6"/><polygon class="cls-9" points="869.79 343.06 869.79 583.89 866.83 582.27 866.83 557.82 866.83 554.05 866.83 551.66 866.83 532.59 866.83 528.83 866.83 526.43 866.83 507.36 866.83 503.6 866.83 501.2 866.83 482.13 866.83 478.37 866.83 475.96 866.83 456.88 866.83 453.13 866.83 450.74 866.83 431.65 866.83 427.89 866.83 425.5 866.83 406.43 866.83 402.67 866.83 400.27 866.83 381.19 866.83 377.44 866.83 375.05 866.83 355.96 866.83 352.2 866.83 349.81 866.83 344.76 869.79 343.06"/><polygon class="cls-7" points="818.77 372.51 818.05 372.94 818.05 368.65 869.79 338.79 869.79 343.06 866.83 344.76 862.46 347.29 860.39 348.49 857.13 350.37 840.61 359.9 838.54 361.11 835.28 362.99 818.77 372.51"/><polygon class="cls-9" points="869.79 330.5 869.79 338.79 866.83 337.17 866.83 328.88 869.79 330.5"/><polygon class="cls-8" points="869.79 338.79 818.05 368.65 815.09 367.05 815.43 366.85 817.51 365.64 828.7 359.19 831.96 357.31 834.03 356.11 850.55 346.56 853.81 344.69 855.88 343.49 866.83 337.17 869.79 338.79"/><polygon class="cls-10" points="866.83 554.05 866.83 557.82 812.24 526.29 804.13 521.62 804.12 520.25 805.08 518.4 866.83 554.05"/><polygon class="cls-11" points="866.83 551.66 866.83 554.05 805.08 518.4 806.03 517.25 806.86 517.04 812.24 520.14 866.83 551.66"/><polygon class="cls-10" points="866.83 528.83 866.83 532.59 812.24 501.06 804.13 496.38 804.12 495.02 805.08 493.18 866.83 528.83"/><polygon class="cls-11" points="866.83 526.43 866.83 528.83 805.08 493.18 806.03 492.01 806.86 491.81 812.24 494.92 866.83 526.43"/><polygon class="cls-10" points="866.83 503.6 866.83 507.36 812.24 475.83 804.13 471.15 804.12 469.8 805.08 467.94 866.83 503.6"/><polygon class="cls-11" points="866.83 501.2 866.83 503.6 805.08 467.94 806.03 466.79 806.86 466.57 812.24 469.69 866.83 501.2"/><polygon class="cls-10" points="866.83 478.37 866.83 482.13 812.24 450.61 804.13 445.93 804.12 444.56 805.08 442.71 866.83 478.37"/><polygon class="cls-11" points="866.83 475.96 866.83 478.37 805.08 442.71 806.03 441.56 806.86 441.35 812.24 444.44 866.83 475.96"/><polygon class="cls-10" points="866.83 453.13 866.83 456.88 812.24 425.37 804.13 420.69 804.12 419.33 805.08 417.48 866.83 453.13"/><polygon class="cls-11" points="866.83 450.74 866.83 453.13 805.08 417.48 806.03 416.32 806.86 416.12 812.24 419.21 866.83 450.74"/><polygon class="cls-10" points="866.83 427.89 866.83 431.65 812.24 400.13 804.13 395.45 804.12 394.1 805.08 392.25 866.83 427.89"/><polygon class="cls-11" points="866.83 425.5 866.83 427.89 805.08 392.25 806.03 391.08 806.86 390.88 812.24 393.99 866.83 425.5"/><polygon class="cls-10" points="866.83 402.67 866.83 406.43 812.24 374.9 804.13 370.23 804.12 368.87 805.08 367.01 866.83 402.67"/><polygon class="cls-11" points="866.83 400.27 866.83 402.67 805.08 367.01 806.03 365.86 806.86 365.65 813.64 369.56 815.09 370.39 815.09 371.31 818.05 372.94 818.77 372.51 866.83 400.27"/><polygon class="cls-10" points="866.83 377.44 866.83 381.19 835.28 362.99 838.54 361.11 866.83 377.44"/><polygon class="cls-11" points="866.83 375.05 866.83 377.44 838.54 361.11 840.61 359.9 866.83 375.05"/><polygon class="cls-10" points="866.83 352.2 866.83 355.96 857.13 350.37 860.39 348.49 866.83 352.2"/><polygon class="cls-11" points="866.83 349.81 866.83 352.2 860.39 348.49 862.46 347.29 866.83 349.81"/><polygon class="cls-11" points="855.88 343.49 853.81 344.69 805.08 316.56 806.03 315.39 806.86 315.19 812.24 318.29 855.88 343.49"/><polygon class="cls-10" points="853.81 344.69 850.55 346.56 812.24 324.44 804.13 319.76 804.12 318.4 805.08 316.56 853.81 344.69"/><polygon class="cls-11" points="834.03 356.11 831.96 357.31 805.08 341.79 806.03 340.63 806.86 340.43 812.24 343.52 834.03 356.11"/><polygon class="cls-10" points="831.96 357.31 828.7 359.19 812.24 349.68 804.13 345 804.12 343.63 805.08 341.79 831.96 357.31"/><polygon class="cls-9" points="818.05 368.65 818.05 372.94 815.09 371.31 815.09 370.39 815.09 367.05 818.05 368.65"/><polygon class="cls-11" points="817.51 365.64 815.43 366.85 749.8 328.94 750.77 327.8 751.63 327.61 754.76 329.42 795.57 352.98 798.53 354.69 812.24 362.61 817.51 365.64"/><polygon class="cls-10" points="815.43 366.85 815.09 367.05 815.09 370.39 813.64 369.56 798.53 360.83 795.57 359.13 749.43 332.49 748.89 332.18 748.84 330.81 749.8 328.94 815.43 366.85"/><polygon class="cls-7" points="813.64 369.56 806.86 365.65 806.03 365.86 805.08 367.01 804.12 368.87 804.13 370.23 812.24 374.9 812.24 393.99 806.86 390.88 806.03 391.08 805.08 392.25 804.12 394.1 804.13 395.45 812.24 400.13 812.24 419.21 806.86 416.12 806.03 416.32 805.08 417.48 804.12 419.33 804.13 420.69 812.24 425.37 812.24 444.44 806.86 441.35 806.03 441.56 805.08 442.71 804.12 444.56 804.13 445.93 812.24 450.61 812.24 469.69 806.86 466.57 806.03 466.79 805.08 467.94 804.12 469.8 804.13 471.15 812.24 475.83 812.24 494.92 806.86 491.81 806.03 492.01 805.08 493.18 804.12 495.02 804.13 496.38 812.24 501.06 812.24 520.14 806.86 517.04 806.03 517.25 805.08 518.4 804.12 520.25 804.13 521.62 812.24 526.29 812.24 537.08 798.53 544.99 798.53 360.85 798.53 360.83 813.64 369.56"/><polygon class="cls-7" points="812.24 349.68 812.24 362.61 798.53 354.69 798.53 304.14 798.53 299.88 798.53 291.6 812.24 283.69 812.24 318.29 806.86 315.19 806.03 315.39 805.08 316.56 804.12 318.4 804.13 319.76 812.24 324.44 812.24 343.52 806.86 340.43 806.03 340.63 805.08 341.79 804.12 343.63 804.13 345 812.24 349.68"/><polygon class="cls-8" points="812.24 283.69 798.53 291.6 795.57 289.99 809.28 282.06 812.24 283.69"/><polygon class="cls-9" points="798.53 360.85 798.53 544.99 795.57 543.37 795.57 359.13 795.57 359.13 798.53 360.83 798.53 360.85"/><polygon class="cls-9" points="798.53 304.14 798.53 354.69 795.57 352.98 795.57 305.86 798.53 304.14"/><polygon class="cls-7" points="798.53 299.88 798.53 304.14 795.57 305.86 754.76 329.42 751.63 327.61 750.77 327.8 749.8 328.94 748.84 330.81 748.89 332.18 749.43 332.49 749.43 332.5 746.79 334.02 746.79 329.75 798.53 299.88"/><polygon class="cls-9" points="798.53 291.6 798.53 299.88 795.57 298.25 795.57 289.99 798.53 291.6"/><polygon class="cls-8" points="798.53 299.88 746.79 329.75 743.83 328.13 795.57 298.25 798.53 299.88"/><polygon class="cls-12" points="778.06 515.35 781.27 519.2 719.01 555.25 721.93 547.83 730.54 543 735.03 540.49 763.06 524.11 767.67 521.41 778.06 515.35"/><polygon class="cls-11" points="778.06 515.35 767.67 521.41 767.67 516.41 773.55 512.91 778.06 515.35"/><path class="cls-12" d="M767.67,516.41v5l-4.61,2.7V496.59l-6.84-5.32h-9.08a27.49,27.49,0,0,0,4.57-5.17h9.12l6.84,7.8Z"/><polygon class="cls-13" points="763.06 496.58 763.06 524.11 758.48 521.88 758.48 494.77 763.06 496.58"/><polygon class="cls-11" points="763.06 524.11 735.03 540.49 735.03 535.45 745.96 529.33 758.48 521.88 763.06 524.11"/><polygon class="cls-13" points="763.06 496.58 758.48 494.77 754.61 491.26 756.22 491.26 763.06 496.58"/><path class="cls-11" d="M760.83,486.1h-9.12c.45-.62.87-1.28,1.28-1.94.18-.28.36-.57.52-.88v0h3.63Z"/><path class="cls-7" d="M735,495.94a7,7,0,0,1-3.16-1.46l-.23-.18,0,0a8,8,0,0,1-1.08-1.17c-2.21-2.92-2.31-7.23-1.82-10.47A29.57,29.57,0,0,1,733.15,471a28.41,28.41,0,0,1,8.5-9.06c3.16-2.11,7.92-4,11.76-1.69,4,2.4,4.49,7.81,4,11.7a28.55,28.55,0,0,1-3.93,11.3c-.16.31-.34.6-.52.88-.41.66-.83,1.32-1.28,1.94a27.49,27.49,0,0,1-4.57,5.17,24.08,24.08,0,0,1-3.07,2.3C741.57,495.15,738.15,496.53,735,495.94Zm12.85-15.26c.56-.95,1.13-2.78-.06-3.57.29-1.35.17-3-1-3.38l-2.29-1.38a1,1,0,0,0-.78.06,5.28,5.28,0,0,0-1.56,1.08,9.7,9.7,0,0,0-1.08,1.27c-.3.42-.59.85-.85,1.29a9,9,0,0,0-.68,1.35,9.36,9.36,0,0,0-.4,1.4A4.26,4.26,0,0,0,739,480c0,.12,0,.25.38.74l2,1.71c.73.83,2,.57,3.18-.25h0l.08.06C745.91,483.05,747.3,481.65,747.88,480.68Z"/><path class="cls-9" d="M748.15,457.15l5.26,3.13c-3.84-2.29-8.6-.42-11.76,1.69a28.41,28.41,0,0,0-8.5,9.06,29.57,29.57,0,0,0-4.43,11.61c-.49,3.24-.39,7.55,1.82,10.47v.27l-4.5-3.75a6.34,6.34,0,0,1-1-2.58,14.39,14.39,0,0,1,0-4.58,29.29,29.29,0,0,1,.94-4.37,34.53,34.53,0,0,1,1.53-4.2,37.17,37.17,0,0,1,1.94-3.83,36.65,36.65,0,0,1,2.52-3.79,34.92,34.92,0,0,1,3.14-3.63,29.41,29.41,0,0,1,3.65-3.13,24.06,24.06,0,0,1,4-2.37C743.84,456.65,745,456.23,748.15,457.15Z"/><path class="cls-7" d="M744.56,455l3.59,2.14c-3.16-.92-4.31-.5-5.41,0a24.06,24.06,0,0,0-4,2.37,29.41,29.41,0,0,0-3.65,3.13,34.92,34.92,0,0,0-3.14,3.63,36.65,36.65,0,0,0-2.52,3.79,37.17,37.17,0,0,0-1.94,3.83,34.53,34.53,0,0,0-1.53,4.2,29.29,29.29,0,0,0-.94,4.37,14.39,14.39,0,0,0,0,4.58,6.34,6.34,0,0,0,1,2.58l-3.44-2.87a11.4,11.4,0,0,1-.74-3.85,20.35,20.35,0,0,1,.61-5.71,29.72,29.72,0,0,1,1.64-4.77,41.71,41.71,0,0,1,4.9-8.36,39,39,0,0,1,3.47-4,24.41,24.41,0,0,1,4.21-3.46,11,11,0,0,1,5.64-1.88A8.24,8.24,0,0,1,744.56,455Z"/><path class="cls-14" d="M747.82,477.11c1.19.79.62,2.62.06,3.57s-2,2.37-3.25,1.6l-.08-.06-.13-.09c-1-.83-.45-2.56.09-3.47s2-2.36,3.24-1.6Z"/><path class="cls-14" d="M746.78,473.73c1.21.34,1.33,2,1,3.38l-.07-.05L746,476a.78.78,0,0,0-.53,0,2.88,2.88,0,0,0-1,.59,5.45,5.45,0,0,0-.66.71,7.8,7.8,0,0,0-.5.77,4.14,4.14,0,0,0-.39.79,4.54,4.54,0,0,0-.2.85,2.4,2.4,0,0,0,0,.75c0,.09,0,.16.3.47l1.47,1.22.13.09h0c-1.14.82-2.45,1.08-3.18.25a2.19,2.19,0,0,1-.51-1.22,7.42,7.42,0,0,1,1.28-4.57c.74-1.16,2.12-2.71,3.64-3A2.16,2.16,0,0,1,746.78,473.73Z"/><path class="cls-15" d="M746,476l1.8,1.08c-1.27-.76-2.66.63-3.24,1.6s-1.08,2.64-.09,3.47L743,480.91c-.26-.31-.28-.38-.3-.47a2.4,2.4,0,0,1,0-.75,4.54,4.54,0,0,1,.2-.85,4.14,4.14,0,0,1,.39-.79,7.8,7.8,0,0,1,.5-.77,5.45,5.45,0,0,1,.66-.71,2.88,2.88,0,0,1,1-.59A.78.78,0,0,1,746,476Z"/><polygon class="cls-9" points="746.79 329.75 746.79 334.02 743.83 332.4 743.83 328.13 746.79 329.75"/><path class="cls-15" d="M744.49,472.35l2.29,1.38a2.16,2.16,0,0,0-1,0c-1.52.29-2.9,1.84-3.64,3a7.42,7.42,0,0,0-1.28,4.57,2.19,2.19,0,0,0,.51,1.22l-2-1.71c-.34-.49-.36-.62-.38-.74a4.26,4.26,0,0,1,.13-1.23,9.36,9.36,0,0,1,.4-1.4,9,9,0,0,1,.68-1.35c.26-.44.55-.87.85-1.29a9.7,9.7,0,0,1,1.08-1.27,5.28,5.28,0,0,1,1.56-1.08A1,1,0,0,1,744.49,472.35Z"/><path class="cls-9" d="M742.18,453.57l2.38,1.44a8.24,8.24,0,0,0-2.23-.29,11,11,0,0,0-5.64,1.88,24.41,24.41,0,0,0-4.21,3.46,39,39,0,0,0-3.47,4,41.71,41.71,0,0,0-4.9,8.36,29.72,29.72,0,0,0-1.64,4.77,20.35,20.35,0,0,0-.61,5.71,11.4,11.4,0,0,0,.74,3.85l-.43-.36c-2.21-2.42-2.43-3-2.6-3.51a14.71,14.71,0,0,1-.37-5.34,26.42,26.42,0,0,1,1-5.86,23.52,23.52,0,0,1,1.68-4c.25-.49.52-1,.79-1.41s.38-.64.59-1c.3-.48.61-1,.94-1.46.59-.85,1.2-1.68,1.85-2.5l0,0a26.38,26.38,0,0,1,4.46-4.51,1.56,1.56,0,0,1,.2-.16,18.35,18.35,0,0,1,4.29-2.51,15.89,15.89,0,0,1,3.06-1A6.43,6.43,0,0,1,742.18,453.57Z"/><path class="cls-12" d="M735,535.44v5L730.54,543V493.38l1.08.9,0,0,.23.18a7,7,0,0,0,3.16,1.46Z"/><path class="cls-12" d="M735,437.48v16.7a18.35,18.35,0,0,0-4.29,2.51,1.56,1.56,0,0,0-.2.16V440Z"/><polygon class="cls-11" points="735.03 437.49 730.54 440 726.04 437.49 730.54 434.96 735.03 437.49"/><polygon class="cls-13" points="730.54 493.38 730.54 543 726.04 540.49 726.04 531.48 726.04 526.02 726.04 520.9 726.04 519.49 726.04 514.03 726.04 508.92 726.04 489.63 730.54 493.38"/><path class="cls-13" d="M730.54,440v16.84a26.38,26.38,0,0,0-4.46,4.51l0,0V437.48Z"/><polygon class="cls-11" points="730.54 543 721.93 547.83 717.43 545.3 726.04 540.49 730.54 543"/><polygon class="cls-13" points="726.04 526.02 726.04 531.48 674.95 501.96 679.63 499.23 679.64 499.23 726.04 526.02"/><polygon class="cls-16" points="726.04 520.9 726.04 526.02 679.64 499.23 684.03 496.65 684.04 496.65 726.04 520.9"/><polygon class="cls-13" points="726.04 514.03 726.04 519.49 685.27 495.94 689.96 493.19 726.04 514.03"/><polygon class="cls-16" points="726.04 508.92 726.04 514.03 689.96 493.19 694.36 490.63 726.04 508.92"/><path class="cls-11" d="M640.49,415.57l83.7,48.33c-.33.49-.64,1-.94,1.46h0l-98.49-56.87,1-.88,1.07.05,4.72,2.73L636,413Z"/><path class="cls-10" d="M723.25,465.36c-.21.32-.4.63-.59,1s-.54.92-.79,1.41l-49.19-28.41-11.39-6.56-5.34-3.1-15.46-8.92L636,418.15l-4.5-2.59-7.06-4.08-.44-1.39.75-1.6,98.49,56.87Z"/><polygon class="cls-13" points="721.93 547.83 719.01 555.25 714.52 552.74 717.43 545.3 721.93 547.83"/><polygon class="cls-7" points="685.27 495.94 684.04 496.65 684.03 496.65 679.64 499.23 679.63 499.23 674.95 501.96 674.94 501.96 617.81 535.35 617.81 532.03 706.09 480.46 706.09 483.77 694.36 490.63 689.96 493.19 685.27 495.94"/><polygon class="cls-9" points="706.09 480.46 617.81 532.03 600.02 521.75 654.29 490.05 658.98 487.31 663.38 484.74 664.61 484.01 669.3 481.27 669.31 481.27 673.7 478.7 673.71 478.7 688.3 470.18 706.09 480.46"/><polygon class="cls-7" points="700.26 238.41 705.43 306.99 703.35 308.18 698.18 239.62 700.26 238.41"/><polygon class="cls-9" points="698.18 239.62 703.35 308.18 591.1 243.38 585.93 174.81 698.18 239.62"/><polygon class="cls-8" points="700.26 238.41 698.18 239.62 585.93 174.81 588.01 173.6 700.26 238.41"/><polygon class="cls-12" points="683.52 462.37 686.73 466.21 669.51 476.27 664.58 473.44 668.07 471.39 672.68 468.69 683.52 462.37"/><polygon class="cls-11" points="683.52 462.37 672.68 468.69 672.68 463.69 679.01 459.94 683.52 462.37"/><polygon class="cls-16" points="669.51 476.27 673.7 478.7 669.31 481.27 669.3 481.27 636 462.05 640.49 459.52 660.39 471.01 664.58 473.44 669.51 476.27"/><polygon class="cls-12" points="672.68 468.69 668.07 471.39 668.07 443.88 661.23 438.55 659.63 438.38 640.49 436.48 640.49 429.88 661.29 432.75 672.68 439.32 672.68 463.69 672.68 468.69"/><polygon class="cls-13" points="651.37 476.38 640.49 470.1 636 467.5 636 462.05 669.3 481.27 664.61 484.01 660.41 481.6 655.48 478.75 651.37 476.38"/><polygon class="cls-13" points="668.07 443.88 668.07 471.39 663.49 469.17 663.49 442.06 668.07 443.88"/><polygon class="cls-13" points="668.07 443.88 663.49 442.06 659.63 438.38 661.23 438.55 668.07 443.88"/><polygon class="cls-11" points="668.07 471.39 664.58 473.44 660.39 471.01 663.49 469.17 668.07 471.39"/><polygon class="cls-16" points="663.38 484.74 658.98 487.31 636 474.04 640.49 471.51 650.12 477.07 654.26 479.46 659.18 482.31 663.38 484.74"/><polygon class="cls-11" points="655.95 429.67 661.29 432.75 640.49 429.88 640.49 427.39 655.95 429.67"/><polygon class="cls-12" points="655.48 478.75 660.41 481.6 659.18 482.31 654.26 479.46 655.48 478.75"/><polygon class="cls-13" points="658.98 487.31 654.29 490.05 650.09 487.63 645.16 484.77 640.83 482.27 640.49 482.07 636 479.49 636 474.04 658.98 487.31"/><polygon class="cls-11" points="655.48 478.75 654.26 479.46 650.12 477.07 651.37 476.38 655.48 478.75"/><polygon class="cls-12" points="645.16 484.77 650.09 487.63 637.58 494.93 624.48 502.27 627.39 494.85 636 490.02 640.49 487.5 645.16 484.77"/><polygon class="cls-11" points="645.16 484.77 640.49 487.5 640.49 482.46 640.83 482.27 645.16 484.77"/><polygon class="cls-12" points="636 467.5 640.49 470.1 640.49 471.51 636 474.04 636 467.5"/><polygon class="cls-12" points="640.49 482.46 640.49 487.5 636 490.02 636 479.49 640.49 482.07 640.49 482.46"/><polygon class="cls-12" points="640.49 436.48 640.49 459.52 636 462.05 636 418.14 640.49 420.75 640.49 427.39 640.49 429.88 640.49 436.48"/><polygon class="cls-12" points="640.49 384.5 640.49 415.57 636 412.99 636 387.02 640.49 384.5"/><polygon class="cls-11" points="640.49 384.5 636 387.02 631.5 384.5 636 382 640.49 384.5"/><polygon class="cls-13" points="636 479.49 636 490.02 631.5 487.5 631.5 420.85 631.5 415.56 636 418.14 636 462.05 636 467.5 636 474.04 636 479.49"/><polygon class="cls-13" points="636 387.02 636 412.99 631.5 410.38 631.5 391.15 631.5 389.82 631.5 384.5 636 387.02"/><polygon class="cls-11" points="636 490.02 627.39 494.85 622.89 492.32 631.5 487.5 636 490.02"/><path class="cls-7" d="M631.5,415.56v5.29a22.66,22.66,0,0,1-8,6c-3,1.29-6.72,1.79-9.57-.49l-.23-.2h0c-3-2.6-3.39-7.14-3-10.6a28.33,28.33,0,0,1,3.52-10.86c3-5.55,9.8-13.57,17.32-13.58v19.24l-4.72-2.73-1.07-.05-1,.88-.75,1.6.44,1.39Z"/><path class="cls-9" d="M631.5,389.82v1.33c-7.52,0-14.31,8-17.32,13.58a28.33,28.33,0,0,0-3.52,10.86c-.36,3.46.06,8,3,10.6l-5.58-4.66a6.21,6.21,0,0,1-1-2.56,14.14,14.14,0,0,1,0-4.59A30.87,30.87,0,0,1,608,410a33.79,33.79,0,0,1,1.53-4.19A38.37,38.37,0,0,1,611.5,402a39.55,39.55,0,0,1,2.52-3.79,33.81,33.81,0,0,1,3.14-3.62,30.36,30.36,0,0,1,3.65-3.14,23.7,23.7,0,0,1,4-2.36c1.1-.51,2.24-.92,5.41,0Z"/><path class="cls-7" d="M626.63,386.91l3.6,2.16c-3.17-.92-4.31-.51-5.41,0a23.7,23.7,0,0,0-4,2.36,30.36,30.36,0,0,0-3.65,3.14,33.81,33.81,0,0,0-3.14,3.62A39.55,39.55,0,0,0,611.5,402a38.37,38.37,0,0,0-1.94,3.84A33.79,33.79,0,0,0,608,410a30.87,30.87,0,0,0-.93,4.37,14.14,14.14,0,0,0,0,4.59,6.21,6.21,0,0,0,1,2.56l-3.43-2.87a11,11,0,0,1-.75-3.84,20.92,20.92,0,0,1,.61-5.69,28.59,28.59,0,0,1,1.65-4.78,41.27,41.27,0,0,1,4.89-8.37,38.86,38.86,0,0,1,3.47-4,23.24,23.24,0,0,1,4.22-3.46,10.88,10.88,0,0,1,5.63-1.89A8.38,8.38,0,0,1,626.63,386.91Z"/><polygon class="cls-13" points="627.39 494.85 624.48 502.27 619.98 499.75 622.89 492.32 627.39 494.85"/><path class="cls-9" d="M624.26,385.49l2.37,1.42a8.38,8.38,0,0,0-2.23-.28,10.88,10.88,0,0,0-5.63,1.89,23.24,23.24,0,0,0-4.22,3.46,38.86,38.86,0,0,0-3.47,4,41.27,41.27,0,0,0-4.89,8.37,28.59,28.59,0,0,0-1.65,4.78,20.92,20.92,0,0,0-.61,5.69,11,11,0,0,0,.75,3.84l-.44-.35c-2.2-2.41-2.43-2.95-2.6-3.51a14.64,14.64,0,0,1-.37-5.33,26.91,26.91,0,0,1,1-5.86,25.81,25.81,0,0,1,2.47-5.38,41.27,41.27,0,0,1,3.43-5,26.34,26.34,0,0,1,4.66-4.66,18,18,0,0,1,7.34-3.47A6.39,6.39,0,0,1,624.26,385.49Z"/><polygon class="cls-8" points="617.81 532.03 617.81 535.35 616.25 534.45 616.25 534.43 612.97 532.54 608.91 530.2 600.02 525.05 600.02 521.75 617.81 532.03"/><polygon class="cls-12" points="616.25 534.43 616.25 534.45 609.11 546.2 609.11 565.38 604.74 567.95 604.74 546.77 612.97 532.54 616.25 534.43"/><polygon class="cls-13" points="612.97 532.54 604.74 546.77 604.74 567.95 600.68 565.6 600.68 544.43 608.91 530.2 612.97 532.54"/><polygon class="cls-17" points="581.12 503.38 581.12 505.98 575.31 509.33 575.31 506.74 581.12 503.38"/><polygon class="cls-13" points="581.12 503.25 581.12 503.38 575.31 506.74 575.31 506.62 569.42 497.83 575.23 494.49 581.12 503.25"/><path class="cls-12" d="M575.31,506.73v2.61l-9.57-5.52,1.87-1.09c.68-2.46.07-4.25-1.85-5.37L482,448.64v-1.25l87.45,50.45,5.89,8.77Z"/><polygon class="cls-18" points="575.23 494.49 569.42 497.83 481.97 447.38 487.78 444.02 490.89 445.81 490.89 445.82 575.23 494.49"/><path class="cls-9" d="M565.76,497.36c1.92,1.12,2.53,2.91,1.85,5.37l-1.87,1.09L530.93,523.9l-1.74-2.58-87.44-50.46v-1.35l-5.89-5.4-5.1-3v-9.93l27.92-16.12L482,448.64Z"/><polygon class="cls-17" points="535.08 530.22 535.08 532.82 529.27 536.17 529.27 533.58 535.08 530.22"/><polygon class="cls-13" points="535.08 530.1 535.08 530.22 529.27 533.58 529.27 533.46 523.38 524.67 529.19 521.33 530.93 523.9 535.08 530.1"/><polygon class="cls-13" points="529.27 533.58 529.27 536.17 435.93 482.32 435.93 474.23 523.38 524.67 529.27 533.46 529.27 533.58"/><polygon class="cls-18" points="529.19 521.33 523.38 524.67 435.93 474.23 441.75 470.87 529.19 521.33"/><polygon class="cls-7" points="518.17 391.88 518.17 394.12 514.75 396.1 514.75 393.85 518.17 391.88"/><polygon class="cls-9" points="518.17 391.88 514.75 393.85 510.92 391.63 514.34 389.67 518.17 391.88"/><polygon class="cls-8" points="514.75 393.85 514.75 396.1 507.55 393.58 510.92 391.63 514.75 393.85"/><polygon class="cls-9" points="514.34 389.67 510.92 391.63 505.11 388.27 508.52 386.31 514.34 389.67"/><polygon class="cls-8" points="510.92 391.63 507.55 393.58 501.05 391.31 501.05 390.63 505.11 388.27 510.92 391.63"/><path class="cls-9" d="M508.52,386.31l-3.41,2-4.06-2.34-46.2,26.67,4.06,2.33-3.42,2-12.29-7.07v-7.62L476.44,383l13.19-7.63Zm-16.76-2.38c0-.8-1-1.07-1.63-1.07s-1.63.27-1.63,1.07,1,1.05,1.63,1.05S491.76,384.72,491.76,383.93Zm-6.26,3.6c0-.8-1-1-1.63-1s-1.63.25-1.63,1,1,1.06,1.63,1.06S485.5,388.34,485.5,387.53Zm-6.26,3.62c0-.79-1-1-1.63-1s-1.63.26-1.63,1,1,1.05,1.63,1.05S479.24,391.94,479.24,391.15ZM465,398.93c0-.8-1-1.05-1.63-1.05s-1.62.25-1.62,1.05,1,1.05,1.62,1.05S465,399.73,465,398.93Zm-6.26,3.6c0-.79-1-1-1.63-1s-1.62.26-1.62,1,1,1.07,1.62,1.07S458.77,403.34,458.77,402.53Zm-6.26,3.62c0-.79-1-1-1.63-1s-1.62.26-1.62,1,1,1.05,1.62,1.05S452.51,406.94,452.51,406.15Z"/><polygon class="cls-8" points="505.11 388.27 501.05 390.63 501.05 385.94 505.11 388.27"/><polygon class="cls-7" points="501.05 385.94 501.05 390.63 458.91 414.94 454.85 412.61 501.05 385.94"/><path class="cls-19" d="M490.13,382.86c.6,0,1.63.27,1.63,1.07s-1,1.05-1.63,1.05-1.63-.26-1.63-1.05S489.52,382.86,490.13,382.86Z"/><polygon class="cls-7" points="490.89 440.88 490.89 445.81 487.78 444.02 481.97 447.38 481.97 446.02 490.89 440.88"/><polygon class="cls-20" points="490.89 440.88 481.97 446.02 476.08 440.62 485 435.46 490.89 440.88"/><polygon class="cls-7" points="485.51 364.01 489.63 375.4 476.44 383.02 475.04 380.61 469.37 364.93 443.76 379.71 443.2 379.71 443.2 373.94 470.33 358.27 485.51 364.01"/><polygon class="cls-17" points="486.2 399.88 488.4 398.62 481.32 408.73 478.61 410.3 486.2 399.88"/><polygon class="cls-13" points="468.51 410.1 486.2 399.88 478.61 410.3 468.51 416.13 468.51 410.1"/><ellipse class="cls-19" cx="483.87" cy="387.53" rx="1.63" ry="1.05"/><polygon class="cls-21" points="485 435.46 476.08 440.62 458.68 430.57 467.6 425.43 468.51 425.95 468.51 433.35 476.49 437.94 478.19 436.95 478.19 431.54 485 435.46"/><polygon class="cls-8" points="481.97 447.38 481.97 448.63 458.68 435.1 458.68 430.57 476.08 440.62 481.97 446.02 481.97 447.38"/><polygon class="cls-17" points="481.32 408.73 478.19 413.19 478.19 431.54 478.19 436.95 476.49 437.94 476.49 413.19 478.61 410.3 481.32 408.73"/><path class="cls-19" d="M477.61,390.1c.61,0,1.63.26,1.63,1s-1,1.05-1.63,1.05-1.63-.26-1.63-1.05S477,390.1,477.61,390.1Z"/><polygon class="cls-13" points="478.61 410.3 476.49 413.19 476.49 437.94 468.51 433.35 468.51 425.95 468.51 422.79 468.55 422.76 468.55 420.51 468.51 420.5 468.51 416.13 478.61 410.3"/><polygon class="cls-7" points="475.04 380.61 476.44 383.02 443.2 402.21 443.2 379.71 443.76 379.71 449.43 395.39 475.04 380.61"/><polygon class="cls-22" points="469.37 364.93 475.04 380.61 449.43 395.39 443.76 379.71 469.37 364.93"/><polygon class="cls-9" points="470.33 358.27 443.2 373.94 443.2 371.56 466.21 358.27 470.33 358.27"/><polygon class="cls-7" points="468.51 420.54 468.51 422.79 465.14 424.74 465.14 422.49 468.51 420.54"/><polygon class="cls-9" points="468.51 420.5 468.51 420.54 465.14 422.49 461.31 420.27 464.73 418.31 468.51 420.5"/><polygon class="cls-8" points="465.14 422.49 465.14 424.74 457.4 422.54 461.31 420.27 465.14 422.49"/><polygon class="cls-9" points="464.73 418.31 461.31 420.27 455.49 416.92 458.91 414.94 459.51 415.3 464.73 418.31"/><path class="cls-19" d="M463.4,397.88c.61,0,1.63.25,1.63,1.05S464,400,463.4,400s-1.62-.25-1.62-1.05S462.8,397.88,463.4,397.88Z"/><polygon class="cls-8" points="461.31 420.27 457.4 422.54 451.61 420.89 450.11 420.02 455.49 416.92 461.31 420.27"/><path class="cls-19" d="M457.14,401.48c.61,0,1.63.26,1.63,1s-1,1.07-1.63,1.07-1.62-.26-1.62-1.07S456.54,401.48,457.14,401.48Z"/><polygon class="cls-8" points="455.49 416.92 450.11 420.02 446.7 418.06 445.98 417.64 443.2 416.05 443.2 409.83 455.49 416.92"/><path class="cls-19" d="M450.88,405.1c.61,0,1.63.26,1.63,1s-1,1.05-1.63,1.05-1.62-.26-1.62-1.05S450.28,405.1,450.88,405.1Z"/><polygon class="cls-17" points="443.2 421.45 443.2 423.06 430.76 440.83 430.76 451.21 430.76 461.15 430.76 464.61 429.05 465.6 429.05 440.83 443.2 421.45"/><polygon class="cls-13" points="443.2 416.05 443.2 421.45 429.05 440.83 429.05 465.6 421.07 460.99 421.07 455.57 421.07 443.5 425.44 440.99 425.44 430.75 438.23 413.18 443.2 416.05"/><polygon class="cls-8" points="443.2 409.83 443.2 416.05 438.23 413.18 434.09 410.79 428.36 394.63 432.48 394.63 436.6 406.02 443.2 409.83"/><polygon class="cls-9" points="443.2 402.21 443.2 409.83 436.6 406.02 443.2 402.21"/><polygon class="cls-7" points="443.2 379.71 443.2 402.21 436.6 406.02 432.48 394.63 438.24 376.8 443.2 373.94 443.2 379.71"/><polygon class="cls-9" points="443.2 371.56 443.2 373.94 438.24 376.8 434.13 376.8 443.2 371.56"/><polygon class="cls-7" points="441.75 469.5 441.75 470.87 435.93 474.23 435.93 482.32 432.83 484.12 432.83 474.65 441.75 469.5"/><polygon class="cls-20" points="441.75 469.5 432.83 474.65 426.94 469.25 435.86 464.11 441.75 469.5"/><polygon class="cls-8" points="438.24 376.8 432.48 394.63 428.36 394.63 434.13 376.8 438.24 376.8"/><polygon class="cls-21" points="435.86 464.11 426.94 469.25 409.54 459.21 418.46 454.06 421.07 455.57 421.07 460.99 429.05 465.6 430.76 464.61 430.76 461.15 435.86 464.11"/><polygon class="cls-8" points="432.83 474.65 432.83 484.12 409.54 470.69 409.54 459.21 426.94 469.25 432.83 474.65"/><polygon class="cls-13" points="425.44 430.75 425.44 440.99 421.07 438.46 421.07 436.76 425.44 430.75"/><polygon class="cls-13" points="425.44 440.99 421.07 443.5 421.07 438.46 425.44 440.99"/><polygon class="cls-12" points="379.24 496.32 379.24 519.82 375.38 522.01 375.38 498.52 370.2 485.27 374.06 483.07 379.24 496.32"/><polygon class="cls-13" points="375.38 498.52 375.38 522.01 348 506.2 348 501.77 348.27 501.56 371.52 514.98 371.52 510.58 371.52 497.02 368.25 488.64 366.38 487.56 365.01 485.44 362.95 484.32 360.25 483.77 360.07 483.93 360.06 483.93 355.57 481.32 359.47 479.07 370.2 485.27 375.38 498.52"/><polygon class="cls-18" points="374.06 483.07 370.2 485.27 359.47 479.07 363.3 476.87 374.06 483.07"/><polygon class="cls-18" points="371.52 510.58 371.52 514.98 348.27 501.56 349.05 500.94 349.07 500.8 351.86 499.2 371.52 510.58"/><polygon class="cls-23" points="366.38 487.56 366.64 487.98 366.25 491.01 364.06 492.76 361.36 492.21 360.25 490.5 365.86 487.26 362.07 485.07 362.31 484.88 365.01 485.44 366.38 487.56"/><polygon class="cls-23" points="365.86 487.26 360.25 490.5 359.72 489.68 360.12 486.63 362.07 485.07 365.86 487.26"/><polygon class="cls-18" points="363.3 476.87 359.47 479.07 353.65 475.71 357.48 473.5 363.3 476.87"/><polygon class="cls-24" points="362.07 485.07 360.12 486.63 358.06 485.52 359.16 484.64 360.06 483.93 360.07 483.93 362.07 485.07"/><polygon class="cls-25" points="360.25 490.5 361.36 492.21 359.3 491.11 359.28 491.06 360.25 490.5"/><polygon class="cls-25" points="359.72 489.68 360.25 490.5 359.28 491.06 357.67 488.56 359.72 489.68"/><polygon class="cls-26" points="360.12 486.63 359.72 489.68 357.67 488.56 357.76 487.89 357.86 487.06 358.06 485.52 360.12 486.63"/><polygon class="cls-7" points="360.06 483.93 359.16 484.64 354.51 481.94 355.57 481.32 360.06 483.93"/><polygon class="cls-13" points="359.47 479.07 355.57 481.32 351.48 478.96 351.48 476.98 353.65 475.71 359.47 479.07"/><polygon class="cls-7" points="359.28 491.06 357.75 491.94 356.66 490.25 354.6 489.14 351.9 488.6 350.81 489.46 346.16 486.76 351 483.98 357.71 487.88 357.76 487.89 357.67 488.56 359.28 491.06"/><polygon class="cls-26" points="359.16 484.64 358.06 485.52 357.86 487.06 351.77 483.52 354.51 481.94 359.16 484.64"/><polygon class="cls-23" points="357.75 491.94 358.29 492.8 357.9 495.83 355.71 497.58 353.01 497.04 351.91 495.31 357.75 491.94"/><polygon class="cls-25" points="357.86 487.06 357.76 487.89 357.71 487.88 351 483.98 351.77 483.52 357.86 487.06"/><polygon class="cls-23" points="357.75 491.94 351.91 495.31 351.38 494.5 351.77 491.45 353.96 489.7 356.66 490.25 357.75 491.94"/><polygon class="cls-18" points="357.48 473.5 353.65 475.71 351.48 474.46 355.34 472.27 357.48 473.5"/><polygon class="cls-25" points="356.66 490.25 353.96 489.7 351.9 488.6 354.6 489.14 356.66 490.25"/><polygon class="cls-7" points="355.57 481.32 354.51 481.94 350.51 479.61 350.52 479.52 351.48 478.96 355.57 481.32"/><polygon class="cls-26" points="350.51 479.61 354.51 481.94 351.77 483.52 347.68 481.15 350.44 479.56 350.51 479.61"/><polygon class="cls-24" points="353.96 489.7 351.77 491.45 349.71 490.35 350.81 489.46 351.9 488.6 353.96 489.7"/><polygon class="cls-13" points="353.65 475.71 351.48 476.98 351.48 474.46 353.65 475.71"/><polygon class="cls-25" points="351.91 495.31 353.01 497.04 350.95 495.93 350.93 495.88 351.91 495.31"/><polygon class="cls-25" points="351.91 495.31 350.93 495.88 349.32 493.38 351.38 494.5 351.91 495.31"/><polygon class="cls-26" points="351.77 491.45 351.38 494.5 349.32 493.38 349.41 492.71 349.51 491.88 349.71 490.35 351.77 491.45"/><polygon class="cls-25" points="351.77 483.52 351 483.98 348.92 482.76 346.97 481.63 346.95 481.58 347.68 481.15 351.77 483.52"/><polygon class="cls-7" points="351 483.98 346.16 486.76 342.16 484.43 342.17 484.35 344.93 482.75 345.3 482.94 348 483.5 348.92 482.76 351 483.98"/><polygon class="cls-7" points="350.93 495.88 348.9 497.06 347.82 495.37 345.76 494.25 343.06 493.69 341.96 494.57 337.32 491.87 342.65 488.8 349.36 492.7 349.41 492.71 349.32 493.38 350.93 495.88"/><polygon class="cls-26" points="350.81 489.46 349.71 490.35 349.51 491.88 343.42 488.35 346.16 486.76 350.81 489.46"/><polygon class="cls-23" points="350.02 477.81 350.59 478.7 350.52 479.52 350.44 479.56 348.72 478.56 350.02 477.81"/><polygon class="cls-26" points="350.44 479.56 347.68 481.15 346.37 480.39 346.45 479.88 348.72 478.56 350.44 479.56"/><polygon class="cls-23" points="348.96 476.17 350.02 477.81 348.72 478.56 348.42 478.39 347.19 478.42 346.54 479.31 346.45 479.88 344.17 481.19 343.67 480.4 344.06 477.38 346.25 475.62 348.96 476.17"/><polygon class="cls-25" points="349.51 491.88 349.41 492.71 349.36 492.7 342.65 488.8 343.42 488.35 349.51 491.88"/><polygon class="cls-23" points="348.9 497.06 349.45 497.9 349.07 500.8 348 501.4 348 501.77 346.86 502.69 344.16 502.13 343.06 500.43 348.9 497.06"/><polygon class="cls-25" points="348.96 476.17 346.25 475.62 344.2 474.5 346.9 475.06 348.96 476.17"/><polygon class="cls-23" points="346.97 481.63 348.92 482.76 348 483.5 345.3 482.94 345.11 482.64 346.95 481.58 346.97 481.63"/><polygon class="cls-23" points="347.82 495.37 348.9 497.06 343.06 500.43 342.53 499.6 342.92 496.56 345.11 494.81 347.82 495.37"/><polygon class="cls-26" points="348.72 478.56 346.45 479.88 346.54 479.31 347.19 478.42 348.42 478.39 348.72 478.56"/><polygon class="cls-25" points="347.82 495.37 345.11 494.81 343.06 493.69 345.76 494.25 347.82 495.37"/><polygon class="cls-25" points="347.68 481.15 346.95 481.58 346.37 480.39 347.68 481.15"/><polygon class="cls-23" points="346.37 480.39 346.95 481.58 345.11 482.64 344.17 481.19 346.45 479.88 346.37 480.39"/><polygon class="cls-24" points="346.25 475.62 344.06 477.38 342.01 476.26 344.2 474.5 346.25 475.62"/><polygon class="cls-26" points="342.16 484.43 346.16 486.76 343.42 488.35 339.33 485.98 342.09 484.38 342.16 484.43"/><polygon class="cls-25" points="345.11 482.64 344.93 482.75 343.25 481.83 343.2 481.75 344.17 481.19 345.11 482.64"/><polygon class="cls-24" points="345.11 494.81 342.92 496.56 340.87 495.45 341.96 494.57 343.06 493.69 345.11 494.81"/><polygon class="cls-25" points="343.67 480.4 344.17 481.19 343.2 481.75 341.61 479.3 343.67 480.4"/><polygon class="cls-25" points="343.06 500.43 344.16 502.13 342.1 501.02 342.08 501 343.06 500.43"/><polygon class="cls-26" points="344.06 477.38 343.67 480.4 341.61 479.3 342.01 476.26 344.06 477.38"/><polygon class="cls-25" points="343.42 488.35 342.65 488.8 340.58 487.58 338.62 486.44 338.6 486.4 339.33 485.98 343.42 488.35"/><polygon class="cls-25" points="342.53 499.6 343.06 500.43 342.08 501 340.47 498.49 342.53 499.6"/><polygon class="cls-26" points="342.92 496.56 342.53 499.6 340.47 498.49 340.56 497.81 340.67 497 340.87 495.45 342.92 496.56"/><polygon class="cls-7" points="342.65 488.8 337.32 491.87 333.31 489.54 333.32 489.45 336.59 487.56 336.96 487.76 339.66 488.31 340.58 487.58 342.65 488.8"/><polygon class="cls-23" points="341.67 482.63 342.24 483.52 342.17 484.35 342.09 484.38 340.37 483.38 341.67 482.63"/><polygon class="cls-26" points="342.09 484.38 339.33 485.98 338.02 485.21 338.1 484.69 340.37 483.38 342.09 484.38"/><polygon class="cls-7" points="340.47 498.49 342.08 501 340.24 502.06 339.16 500.37 337.1 499.25 334.4 498.69 333.3 499.57 324.65 494.54 324.65 494.52 324.66 494.45 327.74 492.68 328.11 492.88 329.55 493.17 329.55 496.36 333.8 493.89 340.52 497.81 340.56 497.81 340.47 498.49"/><polygon class="cls-26" points="341.96 494.57 340.87 495.45 340.67 497 334.57 493.45 337.32 491.87 341.96 494.57"/><polygon class="cls-23" points="340.61 480.99 341.67 482.63 340.37 483.38 340.07 483.21 338.84 483.24 338.19 484.13 338.1 484.69 335.83 486.01 335.32 485.23 335.72 482.19 337.91 480.44 340.61 480.99"/><polygon class="cls-23" points="340.24 502.06 340.79 502.9 340.4 505.94 338.21 507.69 335.5 507.13 334.4 505.43 340.24 502.06"/><polygon class="cls-25" points="340.67 497 340.56 497.81 340.52 497.81 333.8 493.89 334.57 493.45 340.67 497"/><polygon class="cls-25" points="340.61 480.99 337.91 480.44 335.85 479.32 338.55 479.88 340.61 480.99"/><polygon class="cls-23" points="340.58 487.58 339.66 488.31 336.96 487.76 336.76 487.46 338.6 486.4 338.62 486.44 340.58 487.58"/><polygon class="cls-26" points="340.37 483.38 338.1 484.69 338.19 484.13 338.84 483.24 340.07 483.21 340.37 483.38"/><polygon class="cls-23" points="339.16 500.37 340.24 502.06 334.4 505.43 333.87 504.6 334.27 501.56 336.46 499.81 339.16 500.37"/><polygon class="cls-25" points="339.33 485.98 338.6 486.4 338.02 485.21 339.33 485.98"/><polygon class="cls-25" points="339.16 500.37 336.46 499.81 334.4 498.69 337.1 499.25 339.16 500.37"/><polygon class="cls-23" points="338.02 485.21 338.6 486.4 336.76 487.46 335.83 486.01 338.1 484.69 338.02 485.21"/><polygon class="cls-24" points="337.91 480.44 335.72 482.19 333.66 481.07 335.85 479.32 337.91 480.44"/><polygon class="cls-26" points="337.32 491.87 334.57 493.45 330.49 491.08 333.24 489.5 333.31 489.54 337.32 491.87"/><polygon class="cls-25" points="335.83 486.01 336.76 487.46 336.59 487.56 334.9 486.65 334.85 486.57 335.83 486.01"/><polygon class="cls-24" points="336.46 499.81 334.27 501.56 332.21 500.45 333.3 499.57 334.4 498.69 336.46 499.81"/><polygon class="cls-25" points="335.32 485.23 335.83 486.01 334.85 486.57 333.27 484.12 335.32 485.23"/><polygon class="cls-26" points="335.72 482.19 335.32 485.23 333.27 484.12 333.66 481.07 335.72 482.19"/><polygon class="cls-25" points="334.4 505.43 335.5 507.13 333.45 506.02 333.43 505.99 334.4 505.43"/><polygon class="cls-25" points="334.57 493.45 333.8 493.89 331.73 492.69 329.78 491.56 329.76 491.5 330.49 491.08 334.57 493.45"/><polygon class="cls-25" points="333.87 504.6 334.4 505.43 333.43 505.99 331.82 503.49 333.87 504.6"/><polygon class="cls-26" points="334.27 501.56 333.87 504.6 331.82 503.49 331.91 502.81 332.01 502 332.21 500.45 334.27 501.56"/><polygon class="cls-7" points="333.8 493.89 329.55 496.36 329.55 493.17 330.81 493.43 331.73 492.69 333.8 493.89"/><polygon class="cls-7" points="333.43 505.99 331.82 506.92 330.74 505.23 328.68 504.12 325.98 503.56 324.88 504.44 316.23 499.39 316.23 499.38 316.24 499.31 319.08 497.68 319.45 497.88 322.15 498.43 323.07 497.69 331.86 502.81 331.91 502.81 331.82 503.49 333.43 505.99"/><polygon class="cls-23" points="332.82 487.75 333.39 488.63 333.32 489.45 333.24 489.5 331.53 488.5 332.82 487.75"/><polygon class="cls-26" points="333.3 499.57 332.21 500.45 332.01 502 321.83 496.08 324.59 494.5 324.65 494.52 324.65 494.54 333.3 499.57"/><polygon class="cls-26" points="331.53 488.5 333.24 489.5 330.49 491.08 329.55 490.54 329.55 489.63 331.53 488.5"/><polygon class="cls-23" points="331.76 486.1 332.82 487.75 331.53 488.5 331.22 488.31 329.99 488.35 329.55 488.95 329.55 485.64 331.76 486.1"/><polygon class="cls-23" points="331.82 506.92 332.37 507.76 331.98 510.8 329.79 512.55 327.08 512 325.98 510.29 331.82 506.92"/><polygon class="cls-25" points="332.01 502 331.91 502.81 331.86 502.81 323.07 497.69 321.12 496.56 321.1 496.5 321.83 496.08 332.01 502"/><polygon class="cls-23" points="330.74 505.23 331.82 506.92 325.98 510.29 325.45 509.45 325.85 506.43 328.04 504.67 330.74 505.23"/><polygon class="cls-25" points="331.76 486.1 329.55 485.64 329.55 484.95 329.71 484.99 331.76 486.1"/><polygon class="cls-23" points="329.78 491.56 331.73 492.69 330.81 493.43 329.55 493.17 329.55 491.63 329.76 491.5 329.78 491.56"/><polygon class="cls-26" points="331.53 488.5 329.55 489.63 329.55 488.95 329.99 488.35 331.22 488.31 331.53 488.5"/><polygon class="cls-25" points="330.74 505.23 328.04 504.67 325.98 503.56 328.68 504.12 330.74 505.23"/><polygon class="cls-25" points="330.49 491.08 329.76 491.5 329.55 491.08 329.55 490.54 330.49 491.08"/><polygon class="cls-23" points="329.76 491.5 329.55 491.63 329.55 491.08 329.76 491.5"/><polygon class="cls-23" points="329.55 491.63 329.55 493.17 328.11 492.88 327.91 492.57 329.55 491.63"/><polygon class="cls-23" points="329.55 491.08 329.55 491.63 327.91 492.57 326.48 490.33 326.87 487.3 329.06 485.55 329.55 485.64 329.55 488.95 329.34 489.25 329.18 490.32 329.55 491.08"/><polygon class="cls-25" points="329.55 490.54 329.55 491.08 329.18 490.32 329.55 490.54"/><polygon class="cls-26" points="329.55 489.63 329.55 490.54 329.18 490.32 329.34 489.25 329.55 488.95 329.55 489.63"/><polygon class="cls-25" points="329.55 484.95 329.55 485.64 329.06 485.55 327 484.44 329.55 484.95"/><polygon class="cls-24" points="329.06 485.55 326.87 487.3 324.81 486.19 327 484.44 329.06 485.55"/><polygon class="cls-24" points="328.04 504.67 325.85 506.43 323.79 505.31 324.88 504.44 325.98 503.56 328.04 504.67"/><polygon class="cls-25" points="326.48 490.33 327.91 492.57 327.74 492.68 326.05 491.76 324.42 489.23 326.48 490.33"/><polygon class="cls-25" points="325.98 510.29 327.08 512 325.03 510.88 325.01 510.85 325.98 510.29"/><polygon class="cls-26" points="326.87 487.3 326.48 490.33 324.42 489.23 324.81 486.19 326.87 487.3"/><polygon class="cls-25" points="325.45 509.45 325.98 510.29 325.01 510.85 323.39 508.35 325.45 509.45"/><polygon class="cls-26" points="325.85 506.43 325.45 509.45 323.39 508.35 323.48 507.68 323.59 506.86 323.79 505.31 325.85 506.43"/><polygon class="cls-7" points="325.01 510.85 322.98 512.01 321.9 510.32 319.84 509.21 317.14 508.67 316.05 509.54 311.4 506.82 311.78 506.61 311.78 502.88 313.73 503.29 314.65 502.56 323.44 507.68 323.48 507.68 323.39 508.35 325.01 510.85"/><polygon class="cls-26" points="324.88 504.44 323.79 505.31 323.59 506.86 313.41 500.94 316.17 499.36 316.23 499.38 316.23 499.39 324.88 504.44"/><polygon class="cls-23" points="323.1 491.1 324.74 493.63 324.66 494.45 324.59 494.5 322.57 493.31 321.34 493.35 320.68 494.25 320.52 495.32 321.1 496.5 319.25 497.57 317.82 495.33 318.21 492.3 320.4 490.55 323.1 491.1"/><polygon class="cls-26" points="324.59 494.5 321.83 496.08 320.52 495.32 320.68 494.25 321.34 493.35 322.57 493.31 324.59 494.5"/><polygon class="cls-25" points="323.59 506.86 323.48 507.68 323.44 507.68 314.65 502.56 312.7 501.42 312.68 501.37 313.41 500.94 323.59 506.86"/><polygon class="cls-23" points="322.98 512.01 323.53 512.87 323.14 515.9 320.95 517.65 318.25 517.1 317.15 515.38 322.98 512.01"/><polygon class="cls-25" points="323.1 491.1 320.4 490.55 318.35 489.44 321.05 489.99 323.1 491.1"/><polygon class="cls-23" points="323.07 497.69 322.15 498.43 319.45 497.88 319.25 497.57 321.1 496.5 321.12 496.56 323.07 497.69"/><polygon class="cls-23" points="321.9 510.32 322.98 512.01 317.15 515.38 316.62 514.57 317.01 511.52 319.2 509.76 321.9 510.32"/><polygon class="cls-25" points="321.9 510.32 319.2 509.76 317.14 508.67 319.84 509.21 321.9 510.32"/><polygon class="cls-25" points="321.83 496.08 321.1 496.5 320.52 495.32 321.83 496.08"/><polygon class="cls-24" points="320.4 490.55 318.21 492.3 316.16 491.19 318.35 489.44 320.4 490.55"/><polygon class="cls-25" points="317.82 495.33 319.25 497.57 319.08 497.68 317.39 496.76 315.76 494.23 317.82 495.33"/><polygon class="cls-24" points="319.2 509.76 317.01 511.52 314.95 510.42 316.05 509.54 317.14 508.67 319.2 509.76"/><polygon class="cls-25" points="317.15 515.38 318.25 517.1 316.19 516 316.16 515.96 317.15 515.38"/><polygon class="cls-26" points="318.21 492.3 317.82 495.33 315.76 494.23 316.16 491.19 318.21 492.3"/><polygon class="cls-25" points="316.62 514.57 317.15 515.38 316.16 515.96 314.56 513.46 316.62 514.57"/><polygon class="cls-26" points="317.01 511.52 316.62 514.57 314.56 513.46 314.65 512.78 314.75 511.95 314.95 510.42 317.01 511.52"/><polygon class="cls-23" points="314.69 495.95 316.32 498.5 316.24 499.31 316.17 499.36 314.15 498.18 312.92 498.2 312.26 499.11 312.1 500.19 312.68 501.37 311.78 501.88 311.78 495.56 311.98 495.4 314.69 495.95"/><polygon class="cls-26" points="316.17 499.36 313.41 500.94 312.1 500.19 312.26 499.11 312.92 498.2 314.15 498.18 316.17 499.36"/><polygon class="cls-7" points="314.56 513.46 316.16 515.96 314.39 516.98 313.31 515.28 311.25 514.17 308.55 513.63 307.45 514.5 307.45 514.5 302.8 511.79 307.88 508.86 314.6 512.77 314.65 512.78 314.56 513.46"/><polygon class="cls-26" points="316.05 509.54 314.95 510.42 314.75 511.95 308.65 508.42 311.4 506.82 316.05 509.54"/><polygon class="cls-23" points="314.39 516.98 314.94 517.83 314.55 520.87 312.36 522.62 309.65 522.07 308.55 520.35 314.39 516.98"/><polygon class="cls-25" points="314.75 511.95 314.65 512.78 314.6 512.77 307.88 508.86 308.65 508.42 314.75 511.95"/><polygon class="cls-25" points="314.69 495.95 311.98 495.4 311.78 495.3 311.78 494.68 312.63 494.85 314.69 495.95"/><polygon class="cls-23" points="312.7 501.42 314.65 502.56 313.73 503.29 311.78 502.88 311.78 501.88 312.68 501.37 312.7 501.42"/><polygon class="cls-23" points="313.31 515.28 314.39 516.98 308.55 520.35 308.02 519.52 308.42 516.49 310.61 514.74 313.31 515.28"/><polygon class="cls-25" points="313.41 500.94 312.68 501.37 312.1 500.19 313.41 500.94"/><polygon class="cls-25" points="313.31 515.28 310.61 514.74 308.55 513.63 311.25 514.17 313.31 515.28"/><polygon class="cls-7" points="311.78 502.88 311.78 506.61 307.69 504.25 310.66 502.54 311.03 502.74 311.78 502.88"/><polygon class="cls-23" points="311.78 501.88 311.78 502.88 311.03 502.74 310.84 502.44 311.78 501.88"/><polygon class="cls-23" points="311.78 495.56 311.78 501.88 310.84 502.44 309.4 500.19 309.79 497.15 311.78 495.56"/><polygon class="cls-24" points="311.78 495.3 311.78 495.56 309.79 497.15 307.74 496.05 309.93 494.3 311.78 495.3"/><polygon class="cls-25" points="311.78 494.68 311.78 495.3 309.93 494.3 311.78 494.68"/><polygon class="cls-8" points="311.78 506.61 311.4 506.82 307.4 504.5 307.41 504.42 307.69 504.25 311.78 506.61"/><polygon class="cls-26" points="311.4 506.82 308.65 508.42 304.57 506.05 307.33 504.45 307.4 504.5 311.4 506.82"/><polygon class="cls-25" points="310.84 502.44 310.66 502.54 308.97 501.63 307.34 499.08 309.4 500.19 310.84 502.44"/><polygon class="cls-24" points="310.61 514.74 308.42 516.49 306.36 515.38 307.45 514.5 308.55 513.63 310.61 514.74"/><polygon class="cls-12" points="310.42 536.07 310.42 559.54 306.56 561.75 306.56 538.26 301.37 525 305.23 522.82 310.42 536.07"/><polygon class="cls-26" points="309.79 497.15 309.4 500.19 307.34 499.08 307.74 496.05 309.79 497.15"/><polygon class="cls-25" points="308.55 520.35 309.65 522.07 307.6 520.96 307.57 520.91 308.55 520.35"/><polygon class="cls-25" points="308.65 508.42 307.88 508.86 305.82 507.65 303.86 506.51 303.84 506.48 304.57 506.05 308.65 508.42"/><polygon class="cls-25" points="308.55 520.35 307.57 520.91 305.97 518.41 308.02 519.52 308.55 520.35"/><polygon class="cls-26" points="308.42 516.49 308.02 519.52 305.97 518.41 306.06 517.75 306.16 516.91 306.36 515.38 308.42 516.49"/><polygon class="cls-7" points="307.88 508.86 302.8 511.79 298.8 509.45 298.81 509.38 301.82 507.63 302.19 507.83 304.9 508.38 305.82 507.65 307.88 508.86"/><polygon class="cls-7" points="305.97 518.41 307.57 520.91 304.76 522.53 294.48 516.6 299.29 513.82 306.01 517.74 306.06 517.75 305.97 518.41"/><polygon class="cls-23" points="305.96 501.23 307.48 503.6 307.43 504.11 305.96 503.25 305.96 501.23"/><polygon class="cls-26" points="307.45 514.5 307.45 514.5 306.36 515.38 306.16 516.91 300.06 513.38 302.8 511.79 307.45 514.5"/><polygon class="cls-23" points="307.43 504.11 307.41 504.42 307.33 504.45 305.62 503.45 305.96 503.25 307.43 504.11"/><polygon class="cls-26" points="305.62 503.45 307.33 504.45 304.57 506.05 303.26 505.29 303.34 504.76 305.62 503.45"/><polygon class="cls-13" points="306.56 538.26 306.56 561.75 279.18 545.95 279.18 541.13 302.7 554.72 302.7 550.33 302.7 536.75 299.43 528.38 286.74 521.07 290.64 518.82 301.37 525 306.56 538.26"/><polygon class="cls-25" points="306.16 516.91 306.06 517.75 306.01 517.74 299.29 513.82 300.06 513.38 306.16 516.91"/><polygon class="cls-23" points="305.96 501.23 305.96 503.25 305.62 503.45 305.31 503.27 304.08 503.31 303.43 504.2 303.34 504.76 301.06 506.08 300.56 505.3 300.96 502.25 303.15 500.5 305.85 501.06 305.96 501.23"/><polygon class="cls-25" points="305.85 501.06 303.15 500.5 301.09 499.39 303.79 499.94 305.85 501.06"/><polygon class="cls-23" points="305.82 507.65 304.9 508.38 302.19 507.83 302 507.54 303.84 506.48 303.86 506.51 305.82 507.65"/><polygon class="cls-26" points="305.62 503.45 303.34 504.76 303.43 504.2 304.08 503.31 305.31 503.27 305.62 503.45"/><polygon class="cls-18" points="305.23 522.82 301.37 525 290.64 518.82 294.47 516.6 305.23 522.82"/><polygon class="cls-25" points="304.57 506.05 303.84 506.48 303.26 505.29 304.57 506.05"/><polygon class="cls-23" points="303.26 505.29 303.84 506.48 302 507.54 301.06 506.08 303.34 504.76 303.26 505.29"/><polygon class="cls-24" points="303.15 500.5 300.96 502.25 298.9 501.14 301.09 499.39 303.15 500.5"/><polygon class="cls-26" points="302.8 511.79 300.06 513.38 295.98 511 298.73 509.42 298.8 509.45 302.8 511.79"/><polygon class="cls-18" points="302.7 550.33 302.7 554.72 279.18 541.13 283.04 538.93 302.7 550.33"/><polygon class="cls-25" points="302 507.54 301.82 507.63 300.14 506.73 300.09 506.64 301.06 506.08 302 507.54"/><polygon class="cls-25" points="300.56 505.3 301.06 506.08 300.09 506.64 298.51 504.19 300.56 505.3"/><polygon class="cls-26" points="300.96 502.25 300.56 505.3 298.51 504.19 298.9 501.14 300.96 502.25"/><polygon class="cls-25" points="300.06 513.38 299.29 513.82 297.22 512.62 295.27 511.48 295.25 511.44 295.98 511 300.06 513.38"/><polygon class="cls-7" points="299.29 513.82 294.48 516.6 294.47 516.6 290.39 514.24 293.23 512.6 293.6 512.79 296.3 513.36 297.22 512.62 299.29 513.82"/><polygon class="cls-23" points="298.32 507.67 298.89 508.56 298.81 509.38 298.73 509.42 297.02 508.42 298.32 507.67"/><polygon class="cls-26" points="298.73 509.42 295.98 511 294.67 510.25 294.75 509.73 297.02 508.42 298.73 509.42"/><polygon class="cls-23" points="297.26 506.01 298.32 507.67 297.02 508.42 296.72 508.25 295.49 508.26 294.83 509.17 294.75 509.73 292.47 511.05 291.97 510.25 292.36 507.21 294.55 505.46 297.26 506.01"/><polygon class="cls-25" points="297.26 506.01 294.55 505.46 292.5 504.36 295.2 504.92 297.26 506.01"/><polygon class="cls-23" points="295.27 511.48 297.22 512.62 296.3 513.36 293.6 512.79 293.41 512.5 295.25 511.44 295.27 511.48"/><polygon class="cls-26" points="297.02 508.42 294.75 509.73 294.83 509.17 295.49 508.26 296.72 508.25 297.02 508.42"/><polygon class="cls-25" points="295.98 511 295.25 511.44 294.67 510.25 295.98 511"/><polygon class="cls-23" points="294.67 510.25 295.25 511.44 293.41 512.5 292.47 511.05 294.75 509.73 294.67 510.25"/><polygon class="cls-24" points="294.55 505.46 292.36 507.21 290.31 506.12 292.5 504.36 294.55 505.46"/><polygon class="cls-18" points="294.47 516.6 290.64 518.82 284.83 515.46 288.66 513.25 290.39 514.24 294.47 516.6"/><polygon class="cls-25" points="293.41 512.5 293.23 512.6 291.54 511.69 291.49 511.61 292.47 511.05 293.41 512.5"/><polygon class="cls-25" points="291.97 510.25 292.47 511.05 291.49 511.61 289.91 509.14 291.97 510.25"/><polygon class="cls-26" points="292.36 507.21 291.97 510.25 289.91 509.14 290.31 506.12 292.36 507.21"/><polygon class="cls-13" points="284.83 515.46 290.64 518.82 286.74 521.07 282.66 518.71 282.66 516.71 284.83 515.46"/><polygon class="cls-18" points="286.52 512 288.66 513.25 284.83 515.46 282.66 514.21 286.52 512"/><polygon class="cls-13" points="284.83 515.46 282.66 516.71 282.66 514.21 284.83 515.46"/></g><g id="Layer_9" data-name="Layer 9"><polyline class="cls-5" points="457.15 385.94 454.29 378.14 465.03 375.96 457.47 385.94"/><ellipse class="cls-27" cx="644.03" cy="235.37" rx="16.59" ry="20.25" transform="translate(-23.97 80.62) rotate(-7.03)"/><path class="cls-5" d="M642.78,269.58c.42-2.84.84-5.67,1.27-8.51l8.82,8.74"/><line class="cls-28" x1="634.25" y1="256.47" x2="633.62" y2="264.09"/><line class="cls-28" x1="631.44" y1="254.95" x2="630.81" y2="262.58"/><path class="cls-5" d="M673.79,285.86l1.62-7.74,7.63,8.51"/><path class="cls-5" d="M677.91,288.73l1.62-7.74,7.63,8.5"/><path class="cls-5" d="M615.38,241,614,248.65,605.5,242"/><path class="cls-5" d="M610.44,239.27,609,247l-8.47-6.64"/><path class="cls-29" d="M632.28,228.7a22.18,22.18,0,0,1,14.23.48,22,22,0,0,1,9.7,7.44"/><path class="cls-30" d="M633,236.77a17.61,17.61,0,0,1,19.43,6.43"/><path class="cls-31" d="M634.94,243.2a14.57,14.57,0,0,1,7.54.21,11.51,11.51,0,0,1,5.15,3.13"/></g></svg>